<svg width="1440" height="1024" viewBox="0 0 1440 1024" fill="none" xmlns="http://www.w3.org/2000/svg">
<g clip-path="url(#clip0_7926_4169)">
<rect width="1440" height="1024" fill="#131313"/>
<g opacity="0.8">
<g filter="url(#filter0_f_7926_4169)">
<ellipse cx="467.623" cy="511.966" rx="212.623" ry="454.966" fill="#02FBFE"/>
</g>
<g filter="url(#filter1_f_7926_4169)">
<ellipse cx="973.377" cy="511.966" rx="212.623" ry="454.966" fill="#FFA227"/>
</g>
</g>
<g clip-path="url(#clip1_7926_4169)">
<path d="M1440 1024H1011.26V977.893H1440V1024Z" fill="url(#paint0_linear_7926_4169)"/>
<path d="M1176.74 1024H747.999V977.893H1176.74V1024Z" fill="url(#paint1_linear_7926_4169)"/>
<path d="M1564.11 979.106H1135.37V933H1564.11V979.106Z" fill="url(#paint2_linear_7926_4169)"/>
<path d="M1300.85 979.106H872.108V933H1300.85V979.106Z" fill="url(#paint3_linear_7926_4169)"/>
<path d="M1688.22 933H1259.48V886.893H1688.22V933Z" fill="url(#paint4_linear_7926_4169)"/>
<path d="M1424.96 933H996.218V886.893H1424.96V933Z" fill="url(#paint5_linear_7926_4169)"/>
<path d="M1812.32 888.106H1383.59V842H1812.32V888.106Z" fill="url(#paint6_linear_7926_4169)"/>
<path d="M1549.07 888.106H1120.33V842H1549.07V888.106Z" fill="url(#paint7_linear_7926_4169)"/>
<path d="M1673.18 842H1244.44V795.893H1673.18V842Z" fill="url(#paint8_linear_7926_4169)"/>
<path d="M1797.28 797.106H1368.54V751H1797.28V797.106Z" fill="url(#paint9_linear_7926_4169)"/>
</g>
<g opacity="0.4" clip-path="url(#clip2_7926_4169)">
<path d="M0 0H463.435V46.1067H0V0Z" fill="url(#paint10_linear_7926_4169)"/>
<path d="M284.566 0H748.001V46.1067H284.566V0Z" fill="url(#paint11_linear_7926_4169)"/>
<path d="M-134.152 44.8936H329.283V91.0002H-134.152V44.8936Z" fill="url(#paint12_linear_7926_4169)"/>
<path d="M150.414 44.8936H613.849V91.0002H150.414V44.8936Z" fill="url(#paint13_linear_7926_4169)"/>
<path d="M-268.305 91H195.13V137.107H-268.305V91Z" fill="url(#paint14_linear_7926_4169)"/>
<path d="M16.2617 91H479.697V137.107H16.2617V91Z" fill="url(#paint15_linear_7926_4169)"/>
<path d="M-402.457 135.894H60.9778V182H-402.457V135.894Z" fill="url(#paint16_linear_7926_4169)"/>
<path d="M-117.891 135.894H345.544V182H-117.891V135.894Z" fill="url(#paint17_linear_7926_4169)"/>
<path d="M-252.043 182H211.392V228.107H-252.043V182Z" fill="url(#paint18_linear_7926_4169)"/>
<path d="M-386.195 226.894H77.2395V273H-386.195V226.894Z" fill="url(#paint19_linear_7926_4169)"/>
</g>
</g>
<defs>
<filter id="filter0_f_7926_4169" x="-157.86" y="-355.86" width="1250.97" height="1735.65" filterUnits="userSpaceOnUse" color-interpolation-filters="sRGB">
<feFlood flood-opacity="0" result="BackgroundImageFix"/>
<feBlend mode="normal" in="SourceGraphic" in2="BackgroundImageFix" result="shape"/>
<feGaussianBlur stdDeviation="206.43" result="effect1_foregroundBlur_7926_4169"/>
</filter>
<filter id="filter1_f_7926_4169" x="347.894" y="-355.86" width="1250.97" height="1735.65" filterUnits="userSpaceOnUse" color-interpolation-filters="sRGB">
<feFlood flood-opacity="0" result="BackgroundImageFix"/>
<feBlend mode="normal" in="SourceGraphic" in2="BackgroundImageFix" result="shape"/>
<feGaussianBlur stdDeviation="206.43" result="effect1_foregroundBlur_7926_4169"/>
</filter>
<linearGradient id="paint0_linear_7926_4169" x1="1011.26" y1="1000.95" x2="1440" y2="1000.95" gradientUnits="userSpaceOnUse">
<stop stop-color="#02FBFE"/>
<stop offset="0.5" stop-color="#F28706"/>
<stop offset="1"/>
</linearGradient>
<linearGradient id="paint1_linear_7926_4169" x1="747.999" y1="1000.95" x2="1176.74" y2="1000.95" gradientUnits="userSpaceOnUse">
<stop stop-color="#02FBFE"/>
<stop offset="0.5" stop-color="#F28706"/>
<stop offset="1"/>
</linearGradient>
<linearGradient id="paint2_linear_7926_4169" x1="1135.37" y1="956.053" x2="1564.11" y2="956.053" gradientUnits="userSpaceOnUse">
<stop stop-color="#02FBFE"/>
<stop offset="0.5" stop-color="#F28706"/>
<stop offset="1"/>
</linearGradient>
<linearGradient id="paint3_linear_7926_4169" x1="872.108" y1="956.053" x2="1300.85" y2="956.053" gradientUnits="userSpaceOnUse">
<stop stop-color="#02FBFE"/>
<stop offset="0.5" stop-color="#F28706"/>
<stop offset="1"/>
</linearGradient>
<linearGradient id="paint4_linear_7926_4169" x1="1259.48" y1="909.947" x2="1688.22" y2="909.947" gradientUnits="userSpaceOnUse">
<stop stop-color="#02FBFE"/>
<stop offset="0.5" stop-color="#F28706"/>
<stop offset="1"/>
</linearGradient>
<linearGradient id="paint5_linear_7926_4169" x1="996.218" y1="909.947" x2="1424.96" y2="909.947" gradientUnits="userSpaceOnUse">
<stop stop-color="#02FBFE"/>
<stop offset="0.5" stop-color="#F28706"/>
<stop offset="1"/>
</linearGradient>
<linearGradient id="paint6_linear_7926_4169" x1="1383.59" y1="865.053" x2="1812.32" y2="865.053" gradientUnits="userSpaceOnUse">
<stop stop-color="#02FBFE"/>
<stop offset="0.5" stop-color="#F28706"/>
<stop offset="1"/>
</linearGradient>
<linearGradient id="paint7_linear_7926_4169" x1="1120.33" y1="865.053" x2="1549.07" y2="865.053" gradientUnits="userSpaceOnUse">
<stop stop-color="#02FBFE"/>
<stop offset="0.5" stop-color="#F28706"/>
<stop offset="1"/>
</linearGradient>
<linearGradient id="paint8_linear_7926_4169" x1="1244.44" y1="818.947" x2="1673.18" y2="818.947" gradientUnits="userSpaceOnUse">
<stop stop-color="#02FBFE"/>
<stop offset="0.5" stop-color="#F28706"/>
<stop offset="1"/>
</linearGradient>
<linearGradient id="paint9_linear_7926_4169" x1="1368.54" y1="774.053" x2="1797.28" y2="774.053" gradientUnits="userSpaceOnUse">
<stop stop-color="#02FBFE"/>
<stop offset="0.5" stop-color="#F28706"/>
<stop offset="1"/>
</linearGradient>
<linearGradient id="paint10_linear_7926_4169" x1="463.435" y1="23.0533" x2="0" y2="23.0533" gradientUnits="userSpaceOnUse">
<stop stop-color="#02FBFE"/>
<stop offset="0.5" stop-color="#F28706"/>
<stop offset="1"/>
</linearGradient>
<linearGradient id="paint11_linear_7926_4169" x1="748.001" y1="23.0533" x2="284.566" y2="23.0533" gradientUnits="userSpaceOnUse">
<stop stop-color="#02FBFE"/>
<stop offset="0.5" stop-color="#F28706"/>
<stop offset="1"/>
</linearGradient>
<linearGradient id="paint12_linear_7926_4169" x1="329.283" y1="67.9469" x2="-134.152" y2="67.9469" gradientUnits="userSpaceOnUse">
<stop stop-color="#02FBFE"/>
<stop offset="0.5" stop-color="#F28706"/>
<stop offset="1"/>
</linearGradient>
<linearGradient id="paint13_linear_7926_4169" x1="613.849" y1="67.9469" x2="150.414" y2="67.9469" gradientUnits="userSpaceOnUse">
<stop stop-color="#02FBFE"/>
<stop offset="0.5" stop-color="#F28706"/>
<stop offset="1"/>
</linearGradient>
<linearGradient id="paint14_linear_7926_4169" x1="195.13" y1="114.053" x2="-268.305" y2="114.053" gradientUnits="userSpaceOnUse">
<stop stop-color="#02FBFE"/>
<stop offset="0.5" stop-color="#F28706"/>
<stop offset="1"/>
</linearGradient>
<linearGradient id="paint15_linear_7926_4169" x1="479.697" y1="114.053" x2="16.2617" y2="114.053" gradientUnits="userSpaceOnUse">
<stop stop-color="#02FBFE"/>
<stop offset="0.5" stop-color="#F28706"/>
<stop offset="1"/>
</linearGradient>
<linearGradient id="paint16_linear_7926_4169" x1="60.9778" y1="158.947" x2="-402.457" y2="158.947" gradientUnits="userSpaceOnUse">
<stop stop-color="#02FBFE"/>
<stop offset="0.5" stop-color="#F28706"/>
<stop offset="1"/>
</linearGradient>
<linearGradient id="paint17_linear_7926_4169" x1="345.544" y1="158.947" x2="-117.891" y2="158.947" gradientUnits="userSpaceOnUse">
<stop stop-color="#02FBFE"/>
<stop offset="0.5" stop-color="#F28706"/>
<stop offset="1"/>
</linearGradient>
<linearGradient id="paint18_linear_7926_4169" x1="211.392" y1="205.053" x2="-252.043" y2="205.053" gradientUnits="userSpaceOnUse">
<stop stop-color="#02FBFE"/>
<stop offset="0.5" stop-color="#F28706"/>
<stop offset="1"/>
</linearGradient>
<linearGradient id="paint19_linear_7926_4169" x1="77.2395" y1="249.947" x2="-386.195" y2="249.947" gradientUnits="userSpaceOnUse">
<stop stop-color="#02FBFE"/>
<stop offset="0.5" stop-color="#F28706"/>
<stop offset="1"/>
</linearGradient>
<clipPath id="clip0_7926_4169">
<rect width="1440" height="1024" fill="white"/>
</clipPath>
<clipPath id="clip1_7926_4169">
<rect width="692" height="273" fill="white" transform="matrix(-1 0 0 -1 1440 1024)"/>
</clipPath>
<clipPath id="clip2_7926_4169">
<rect width="748" height="273" fill="white"/>
</clipPath>
</defs>
</svg>
