<svg width="144" height="43" viewBox="0 0 144 43" fill="none" xmlns="http://www.w3.org/2000/svg">
<path d="M64.1861 0.542192C63.8094 0.243143 63.3937 0.0927734 62.9393 0.0927734C62.4848 0.0927734 62.0624 0.243143 61.6772 0.542192C61.2903 0.841241 61.0977 1.3008 61.0977 1.91917V19.1981C61.0977 19.7962 61.2903 20.2507 61.6772 20.5616C62.0641 20.8708 62.4831 21.0262 62.9393 21.0262C63.3954 21.0262 63.8111 20.8724 64.1861 20.5616C64.5629 20.2524 64.7504 19.7979 64.7504 19.1981V1.91917C64.7504 1.3008 64.5629 0.841241 64.1861 0.542192Z" fill="#59C8DD"/>
<path d="M83.9383 7.93952C83.2118 7.22147 82.3585 6.65716 81.382 6.2466C80.4054 5.83773 79.3495 5.6333 78.2141 5.6333C77.0787 5.6333 76.0211 5.8428 75.0445 6.26181C74.068 6.68082 73.2164 7.25019 72.4882 7.96824C71.7617 8.6863 71.1924 9.526 70.7852 10.484C70.3763 11.4419 70.1719 12.4607 70.1719 13.5387V25.2776C70.1719 25.8571 70.356 26.2964 70.726 26.5954C71.0944 26.8945 71.51 27.0449 71.9695 27.0449C72.4291 27.0449 72.8532 26.8945 73.2418 26.5954C73.6304 26.2947 73.8264 25.8554 73.8264 25.2759V13.5167C73.8264 12.797 73.9514 12.1718 74.2014 11.643C74.4515 11.1142 74.7809 10.6681 75.1898 10.3083C75.5987 9.94839 76.0684 9.67806 76.5972 9.49897C77.126 9.31988 77.6599 9.22864 78.1989 9.22864C78.7379 9.22864 79.3022 9.31988 79.831 9.49897C80.3598 9.67975 80.8346 9.95007 81.2536 10.3099C81.6726 10.6715 82.0071 11.1159 82.2572 11.6481C82.5072 12.1786 82.6322 12.8054 82.6322 13.5268C82.6322 14.108 82.5224 14.6588 82.3028 15.1792C82.0831 15.7013 81.779 16.1558 81.3887 16.5477C80.9985 16.938 80.5355 17.2489 79.9966 17.4787C79.4576 17.7085 78.8679 17.8233 78.2293 17.8233C78.1702 17.8233 78.0451 17.8183 77.8542 17.8081C77.665 17.798 77.4538 17.8233 77.2257 17.8825C76.9959 17.9416 76.7712 18.0481 76.5516 18.1967C76.3319 18.3471 76.163 18.5819 76.043 18.8996C75.8825 19.3186 75.8285 19.6886 75.8775 20.0079C75.9265 20.3272 76.0667 20.5976 76.2965 20.8172C76.5262 21.0368 76.8202 21.2024 77.1801 21.3106C77.54 21.4204 77.9488 21.4744 78.4084 21.4744C79.1873 21.4744 80.0354 21.3139 80.9545 20.9946C81.872 20.6753 82.7235 20.1853 83.5057 19.5281C84.288 18.8692 84.9469 18.0413 85.4825 17.0428C86.0164 16.0443 86.285 14.8768 86.285 13.5387C86.285 12.4405 86.0755 11.4132 85.6565 10.4536C85.2375 9.49559 84.6648 8.65758 83.9383 7.93783V7.93952Z" fill="#59C8DD"/>
<path d="M103.552 7.51977C102.944 6.9014 102.248 6.43171 101.461 6.11238C100.673 5.79306 99.8624 5.63255 99.0243 5.63255C98.2877 5.63255 97.5544 5.76096 96.8279 6.01946C96.1014 6.27627 95.4189 6.68344 94.7802 7.23761L94.7583 1.91725C94.7583 1.29888 94.5707 0.841015 94.194 0.541966C93.8172 0.242917 93.4016 0.0942383 92.9471 0.0942383C92.4926 0.0942383 92.0702 0.249676 91.685 0.558862C91.2981 0.868048 91.1055 1.32253 91.1055 1.92232V19.2013C91.1055 19.8196 91.293 20.2792 91.6698 20.5782C92.0465 20.8773 92.4622 21.0276 92.9167 21.0276C93.3711 21.0276 93.7935 20.8722 94.1787 20.563C94.564 20.2521 94.7583 19.7977 94.7583 19.1962V12.7117C94.7583 12.1322 94.8579 11.6254 95.059 11.1962C95.2601 10.7654 95.5304 10.4055 95.8717 10.1149C96.213 9.82431 96.5931 9.60466 97.0138 9.45429C97.4345 9.30392 97.8755 9.22959 98.3367 9.22959C98.798 9.22959 99.2136 9.30561 99.6444 9.45429C100.075 9.60466 100.455 9.82431 100.787 10.1149C101.118 10.4055 101.388 10.7654 101.599 11.1962C101.81 11.627 101.915 12.1322 101.915 12.7117V19.1962C101.915 19.7977 102.108 20.2521 102.495 20.563C102.88 20.8739 103.301 21.0276 103.757 21.0276C104.213 21.0276 104.629 20.8739 105.004 20.563C105.38 20.2538 105.568 19.7994 105.568 19.1996V12.7303C105.568 11.6321 105.384 10.6437 105.015 9.76517C104.647 8.88661 104.159 8.13815 103.551 7.51977H103.552Z" fill="#59C8DD"/>
<path d="M125.874 10.485C125.455 9.52698 124.882 8.68559 124.155 7.96078C123.429 7.23597 122.576 6.66658 121.599 6.25434C120.622 5.84209 119.567 5.63428 118.431 5.63428C117.296 5.63428 116.238 5.84379 115.262 6.26279C114.285 6.6818 113.439 7.25117 112.72 7.96922C112.002 8.68728 111.435 9.52698 111.017 10.485C110.598 11.4429 110.391 12.4617 110.391 13.5396C110.391 14.898 110.658 16.0756 111.193 17.0742C111.727 18.0727 112.396 18.8955 113.199 19.5443C114.001 20.1931 114.868 20.678 115.795 20.9973C116.723 21.3166 117.578 21.4771 118.355 21.4771C118.794 21.4771 119.198 21.4264 119.568 21.3267C119.938 21.2271 120.232 21.0767 120.452 20.8773C120.671 20.678 120.812 20.433 120.871 20.1441C120.932 19.8551 120.881 19.5206 120.72 19.1405C120.58 18.8211 120.406 18.5914 120.197 18.4511C119.987 18.3126 119.768 18.2214 119.538 18.1808C119.308 18.1403 119.093 18.1318 118.894 18.1504C118.695 18.1707 118.534 18.1808 118.414 18.1808C117.776 18.1808 117.186 18.0473 116.647 17.7787C116.108 17.5101 115.643 17.1569 115.255 16.7194C114.866 16.2818 114.565 15.7901 114.356 15.241C114.146 14.6936 114.042 14.131 114.042 13.5548C114.042 12.7793 114.167 12.1018 114.417 11.5257C114.667 10.9479 115.003 10.4664 115.424 10.0778C115.844 9.68917 116.321 9.40195 116.851 9.21272C117.382 9.0235 117.928 8.92888 118.489 8.92888C119.05 8.92888 119.565 9.0235 120.097 9.21272C120.628 9.40195 121.094 9.69256 121.494 10.0812C121.895 10.4697 122.221 10.9546 122.471 11.5342C122.721 12.1137 122.846 12.7912 122.846 13.5701V19.4699C122.846 20.0089 123.039 20.4127 123.425 20.683C123.812 20.9534 124.231 21.0868 124.688 21.0868C125.144 21.0868 125.559 20.9517 125.934 20.683C126.311 20.4144 126.499 20.0089 126.499 19.4699V13.5701C126.499 12.4719 126.289 11.4446 125.87 10.485H125.874Z" fill="#59C8DD"/>
<path d="M46.1248 11.5852L45.6027 11.0648C39.2129 4.68679 35.8152 0.934316 31.6268 0.189228C31.4545 0.158816 31.2839 0.133469 31.1166 0.111505C31.0727 0.104747 31.0287 0.0996825 30.9831 0.0946139C30.8361 0.076029 30.6908 0.0608198 30.5472 0.048993C30.5269 0.0473034 30.505 0.0439281 30.4847 0.0422385C30.3242 0.0287222 30.1654 0.0202722 30.0083 0.0135141C29.9677 0.0118245 29.9289 0.0101352 29.8883 0.00844564C29.7582 0.00337702 29.6298 0.00168954 29.5031 0C29.4828 0 29.4625 0 29.4423 0C29.4321 0 29.4237 0 29.4152 0C29.2801 0 29.1483 0.00168583 29.0182 0.00675445C28.9945 0.00675445 28.9709 0.00844729 28.9472 0.0101368C28.8408 0.0135159 28.736 0.0185839 28.633 0.0253421C28.5924 0.0287212 28.5519 0.0304087 28.5096 0.0337877C28.4235 0.0405459 28.3373 0.0473032 28.2545 0.0540614C28.2157 0.0574405 28.1768 0.0608192 28.1379 0.0641982C28.0416 0.0743355 27.947 0.0844767 27.8558 0.0946139C27.8338 0.097993 27.8119 0.0996788 27.7916 0.101368C27.6801 0.114885 27.5702 0.130094 27.4638 0.146989C27.4334 0.152058 27.4047 0.157124 27.3743 0.160503C27.2965 0.17233 27.2222 0.184157 27.1479 0.197673C27.1141 0.202742 27.0803 0.209503 27.0465 0.216261C26.9755 0.229777 26.9079 0.241601 26.8404 0.255117C26.8116 0.260186 26.7846 0.265256 26.7576 0.272014C26.6663 0.290599 26.5768 0.309186 26.4923 0.327771C25.6222 0.517 24.5122 0.865045 23.3447 1.53072C20.7141 3.03273 19.3878 5.24433 18.8336 6.33071C18.4315 7.11634 17.4465 9.28572 17.5023 12.1748C17.4465 15.064 18.4332 17.2333 18.8336 18.019C19.3878 19.1053 20.7141 21.3169 23.3447 22.8189C24.5122 23.4846 25.6205 23.8327 26.4923 24.0219C27.6716 24.2821 29.5048 24.5389 31.6285 24.1604C34.6359 23.6249 37.2615 21.5062 40.8568 18.0071L36.9134 14.057C34.1392 16.9089 32.7639 18.1879 30.7027 18.514C29.4254 18.7167 28.3187 18.4887 27.5922 18.269C24.845 17.4479 22.9663 14.9389 22.973 12.1748C22.9646 9.41074 24.8433 6.90177 27.5922 6.08066C27.6733 6.057 27.7595 6.03166 27.849 6.00801C27.8744 6.00125 27.8997 5.99449 27.9251 5.98773C27.9977 5.96915 28.0737 5.95056 28.1515 5.93367C28.1768 5.9286 28.2021 5.92184 28.2275 5.91677C28.3289 5.8948 28.4336 5.87453 28.5434 5.85595C28.5637 5.85257 28.584 5.84919 28.6042 5.8475C28.6955 5.83229 28.7901 5.82047 28.8864 5.80864C28.9202 5.80526 28.9557 5.8002 28.9912 5.79682C29.0908 5.78668 29.1922 5.77823 29.2953 5.77147C29.3172 5.77147 29.3392 5.76809 29.3629 5.7664C29.4845 5.75964 29.6078 5.75796 29.7346 5.75965C29.8359 5.75965 29.9407 5.7664 30.0454 5.77147C30.0995 5.77485 30.1519 5.77485 30.2076 5.77992C30.3698 5.79344 30.5337 5.81033 30.701 5.83736C32.8112 6.17189 34.1933 7.49311 37.1043 10.492C37.7345 11.1408 38.2549 11.6781 38.7381 12.1782L48.5611 22.0012L52.5636 17.9987L46.7195 12.1765C46.5134 11.9721 46.314 11.7744 46.1231 11.5852H46.1248Z" fill="#59C8DD"/>
<path d="M48.1142 2.79943L44.5898 6.32382C44.9903 6.72424 45.3789 7.11114 45.8029 7.53691L47.4621 9.19773L48.5856 10.3162L52.1151 6.79858L53.6137 8.2972C54.0023 5.57704 54.3892 2.85688 54.7778 0.136719C52.0576 0.523624 49.3375 0.912219 46.6173 1.29912L48.1159 2.79775L48.1142 2.79943Z" fill="#59C8DD"/>
<path d="M1.024 40.0844C0.922667 40.0844 0.842667 40.0551 0.784 39.9964C0.725333 39.9324 0.696 39.8498 0.696 39.7484V34.7244C0.696 34.6284 0.725333 34.5511 0.784 34.4924C0.848 34.4338 0.930667 34.4044 1.032 34.4044H2.928C3.52 34.4044 3.97867 34.5484 4.304 34.8364C4.63467 35.1244 4.8 35.5324 4.8 36.0604C4.8 36.5884 4.63467 36.9991 4.304 37.2924C3.97333 37.5858 3.51467 37.7324 2.928 37.7324H1.352V39.7484C1.352 39.8498 1.32267 39.9324 1.264 39.9964C1.20533 40.0551 1.12533 40.0844 1.024 40.0844ZM2.864 37.1884C3.72267 37.1884 4.152 36.8124 4.152 36.0604C4.152 35.3191 3.72267 34.9484 2.864 34.9484H1.352V37.1884H2.864ZM7.24725 40.1004C6.87925 40.1004 6.55392 40.0178 6.27125 39.8524C5.99392 39.6871 5.77792 39.4524 5.62325 39.1484C5.47392 38.8391 5.39925 38.4818 5.39925 38.0764C5.39925 37.6711 5.47392 37.3164 5.62325 37.0124C5.77792 36.7031 5.99392 36.4658 6.27125 36.3004C6.55392 36.1351 6.87925 36.0524 7.24725 36.0524C7.61525 36.0524 7.94058 36.1351 8.22325 36.3004C8.50592 36.4658 8.72192 36.7031 8.87125 37.0124C9.02592 37.3164 9.10325 37.6711 9.10325 38.0764C9.10325 38.4818 9.02592 38.8391 8.87125 39.1484C8.72192 39.4524 8.50592 39.6871 8.22325 39.8524C7.94058 40.0178 7.61525 40.1004 7.24725 40.1004ZM7.24725 39.5644C7.63125 39.5644 7.92458 39.4391 8.12725 39.1884C8.33525 38.9324 8.43925 38.5618 8.43925 38.0764C8.43925 37.6018 8.33525 37.2364 8.12725 36.9804C7.91925 36.7191 7.62592 36.5884 7.24725 36.5884C6.86858 36.5884 6.57525 36.7191 6.36725 36.9804C6.15925 37.2364 6.05525 37.6018 6.05525 38.0764C6.05525 38.5564 6.15658 38.9244 6.35925 39.1804C6.56725 39.4364 6.86325 39.5644 7.24725 39.5644ZM15.3499 36.2764C15.4032 36.1484 15.4912 36.0844 15.6139 36.0844C15.6939 36.0844 15.7659 36.1111 15.8299 36.1644C15.8939 36.2178 15.9259 36.2844 15.9259 36.3644C15.9259 36.4018 15.9179 36.4418 15.9019 36.4844L14.5739 39.8444C14.5419 39.9138 14.4939 39.9698 14.4299 40.0124C14.3712 40.0498 14.3045 40.0684 14.2299 40.0684C14.1605 40.0684 14.0939 40.0498 14.0299 40.0124C13.9712 39.9698 13.9259 39.9138 13.8939 39.8444L12.7899 37.0364L11.6939 39.8444C11.6672 39.9138 11.6219 39.9698 11.5579 40.0124C11.4939 40.0498 11.4245 40.0684 11.3499 40.0684C11.2805 40.0684 11.2139 40.0498 11.1499 40.0124C11.0859 39.9698 11.0379 39.9138 11.0059 39.8444L9.67788 36.4924C9.66188 36.4498 9.65388 36.4124 9.65388 36.3804C9.65388 36.2951 9.68854 36.2231 9.75788 36.1644C9.83254 36.1058 9.91254 36.0764 9.99788 36.0764C10.1259 36.0764 10.2165 36.1404 10.2699 36.2684L11.3659 39.2204L12.4939 36.2924C12.5259 36.2231 12.5685 36.1698 12.6219 36.1324C12.6805 36.0951 12.7419 36.0764 12.8059 36.0764C12.8752 36.0764 12.9365 36.0951 12.9899 36.1324C13.0485 36.1698 13.0912 36.2231 13.1179 36.2924L14.2459 39.2124L15.3499 36.2764ZM19.7254 39.1404C19.784 39.1404 19.8347 39.1644 19.8774 39.2124C19.92 39.2604 19.9414 39.3218 19.9414 39.3964C19.9414 39.5298 19.848 39.6524 19.6614 39.7644C19.4694 39.8764 19.2667 39.9618 19.0534 40.0204C18.84 40.0738 18.632 40.1004 18.4294 40.1004C17.8267 40.1004 17.3494 39.9218 16.9974 39.5644C16.6507 39.2071 16.4774 38.7138 16.4774 38.0844C16.4774 37.6844 16.5547 37.3324 16.7094 37.0284C16.864 36.7191 17.08 36.4791 17.3574 36.3084C17.64 36.1378 17.96 36.0524 18.3174 36.0524C18.824 36.0524 19.2267 36.2178 19.5254 36.5484C19.824 36.8791 19.9734 37.3271 19.9734 37.8924C19.9734 37.9991 19.952 38.0764 19.9094 38.1244C19.8667 38.1724 19.7974 38.1964 19.7014 38.1964H17.1254C17.1734 39.1138 17.608 39.5724 18.4294 39.5724C18.6374 39.5724 18.816 39.5458 18.9654 39.4924C19.1147 39.4338 19.2747 39.3564 19.4454 39.2604C19.584 39.1804 19.6774 39.1404 19.7254 39.1404ZM18.3254 36.5564C17.984 36.5564 17.7094 36.6631 17.5014 36.8764C17.2987 37.0898 17.1787 37.3911 17.1414 37.7804H19.4054C19.3947 37.3858 19.296 37.0844 19.1094 36.8764C18.9227 36.6631 18.6614 36.5564 18.3254 36.5564ZM22.8561 36.0684C23.0801 36.0524 23.1921 36.1431 23.1921 36.3404C23.1921 36.4258 23.1681 36.4951 23.1201 36.5484C23.0721 36.5964 22.9895 36.6258 22.8721 36.6364L22.6321 36.6604C22.2748 36.6924 22.0081 36.8204 21.8321 37.0444C21.6615 37.2631 21.5761 37.5218 21.5761 37.8204V39.7644C21.5761 39.8711 21.5468 39.9511 21.4881 40.0044C21.4295 40.0578 21.3521 40.0844 21.2561 40.0844C21.1601 40.0844 21.0801 40.0578 21.0161 40.0044C20.9575 39.9458 20.9281 39.8658 20.9281 39.7644V36.3884C20.9281 36.2871 20.9601 36.2098 21.0241 36.1564C21.0881 36.0978 21.1655 36.0684 21.2561 36.0684C21.3415 36.0684 21.4135 36.0978 21.4721 36.1564C21.5308 36.2098 21.5601 36.2844 21.5601 36.3804V36.8284C21.6721 36.5938 21.8295 36.4151 22.0321 36.2924C22.2401 36.1698 22.4775 36.0978 22.7441 36.0764L22.8561 36.0684ZM26.6863 39.1404C26.745 39.1404 26.7956 39.1644 26.8383 39.2124C26.881 39.2604 26.9023 39.3218 26.9023 39.3964C26.9023 39.5298 26.809 39.6524 26.6223 39.7644C26.4303 39.8764 26.2276 39.9618 26.0143 40.0204C25.801 40.0738 25.593 40.1004 25.3903 40.1004C24.7876 40.1004 24.3103 39.9218 23.9583 39.5644C23.6116 39.2071 23.4383 38.7138 23.4383 38.0844C23.4383 37.6844 23.5156 37.3324 23.6703 37.0284C23.825 36.7191 24.041 36.4791 24.3183 36.3084C24.601 36.1378 24.921 36.0524 25.2783 36.0524C25.785 36.0524 26.1876 36.2178 26.4863 36.5484C26.785 36.8791 26.9343 37.3271 26.9343 37.8924C26.9343 37.9991 26.913 38.0764 26.8703 38.1244C26.8276 38.1724 26.7583 38.1964 26.6623 38.1964H24.0863C24.1343 39.1138 24.569 39.5724 25.3903 39.5724C25.5983 39.5724 25.777 39.5458 25.9263 39.4924C26.0756 39.4338 26.2356 39.3564 26.4063 39.2604C26.545 39.1804 26.6383 39.1404 26.6863 39.1404ZM25.2863 36.5564C24.945 36.5564 24.6703 36.6631 24.4623 36.8764C24.2596 37.0898 24.1396 37.3911 24.1023 37.7804H26.3663C26.3556 37.3858 26.257 37.0844 26.0703 36.8764C25.8836 36.6631 25.6223 36.5564 25.2863 36.5564ZM31.0171 34.3644C31.1184 34.3644 31.1984 34.3938 31.2571 34.4524C31.3157 34.5111 31.3451 34.5858 31.3451 34.6764V39.7644C31.3451 39.8604 31.3157 39.9378 31.2571 39.9964C31.1984 40.0551 31.1184 40.0844 31.0171 40.0844C30.9157 40.0844 30.8357 40.0551 30.7771 39.9964C30.7237 39.9378 30.6971 39.8604 30.6971 39.7644V39.3324C30.5797 39.5778 30.4064 39.7671 30.1771 39.9004C29.9531 40.0338 29.6891 40.1004 29.3851 40.1004C29.0437 40.1004 28.7424 40.0151 28.4811 39.8444C28.2197 39.6738 28.0171 39.4364 27.8731 39.1324C27.7291 38.8231 27.6571 38.4658 27.6571 38.0604C27.6571 37.6604 27.7291 37.3084 27.8731 37.0044C28.0171 36.7004 28.2197 36.4658 28.4811 36.3004C28.7424 36.1351 29.0437 36.0524 29.3851 36.0524C29.6891 36.0524 29.9531 36.1191 30.1771 36.2524C30.4064 36.3858 30.5797 36.5751 30.6971 36.8204V34.6764C30.6971 34.5804 30.7237 34.5058 30.7771 34.4524C30.8357 34.3938 30.9157 34.3644 31.0171 34.3644ZM29.5131 39.5644C29.8917 39.5644 30.1824 39.4364 30.3851 39.1804C30.5931 38.9191 30.6971 38.5511 30.6971 38.0764C30.6971 37.6018 30.5931 37.2364 30.3851 36.9804C30.1824 36.7244 29.8917 36.5964 29.5131 36.5964C29.1344 36.5964 28.8384 36.7244 28.6251 36.9804C28.4171 37.2364 28.3131 37.5964 28.3131 38.0604C28.3131 38.5351 28.4171 38.9058 28.6251 39.1724C28.8384 39.4338 29.1344 39.5644 29.5131 39.5644ZM36.5678 36.0524C36.9091 36.0524 37.2105 36.1351 37.4718 36.3004C37.7331 36.4658 37.9358 36.7004 38.0798 37.0044C38.2238 37.3084 38.2958 37.6604 38.2958 38.0604C38.2958 38.4658 38.2238 38.8231 38.0798 39.1324C37.9358 39.4364 37.7331 39.6738 37.4718 39.8444C37.2105 40.0151 36.9091 40.1004 36.5678 40.1004C36.2638 40.1004 35.9971 40.0338 35.7678 39.9004C35.5438 39.7671 35.3731 39.5778 35.2558 39.3324V39.7644C35.2558 39.8604 35.2265 39.9378 35.1678 39.9964C35.1145 40.0551 35.0371 40.0844 34.9358 40.0844C34.8345 40.0844 34.7545 40.0551 34.6958 39.9964C34.6371 39.9378 34.6078 39.8604 34.6078 39.7644V34.6764C34.6078 34.5858 34.6371 34.5111 34.6958 34.4524C34.7545 34.3938 34.8345 34.3644 34.9358 34.3644C35.0371 34.3644 35.1145 34.3938 35.1678 34.4524C35.2265 34.5058 35.2558 34.5804 35.2558 34.6764V36.8204C35.3731 36.5751 35.5438 36.3858 35.7678 36.2524C35.9971 36.1191 36.2638 36.0524 36.5678 36.0524ZM36.4398 39.5644C36.8185 39.5644 37.1118 39.4338 37.3198 39.1724C37.5278 38.9058 37.6318 38.5351 37.6318 38.0604C37.6318 37.5964 37.5278 37.2364 37.3198 36.9804C37.1118 36.7244 36.8185 36.5964 36.4398 36.5964C36.0611 36.5964 35.7678 36.7244 35.5598 36.9804C35.3571 37.2364 35.2558 37.6018 35.2558 38.0764C35.2558 38.5511 35.3571 38.9191 35.5598 39.1804C35.7678 39.4364 36.0611 39.5644 36.4398 39.5644ZM42.0252 36.2684C42.0839 36.1404 42.1772 36.0764 42.3052 36.0764C42.3852 36.0764 42.4572 36.1031 42.5212 36.1564C42.5852 36.2098 42.6172 36.2764 42.6172 36.3564C42.6172 36.4044 42.6065 36.4471 42.5852 36.4844L40.3372 41.3324C40.3105 41.3911 40.2705 41.4364 40.2172 41.4684C40.1692 41.5004 40.1185 41.5164 40.0652 41.5164C39.9852 41.5164 39.9132 41.4898 39.8492 41.4364C39.7905 41.3884 39.7612 41.3244 39.7612 41.2444C39.7612 41.2018 39.7719 41.1591 39.7932 41.1164L40.3532 39.9084L38.7692 36.4844C38.7479 36.4471 38.7372 36.4071 38.7372 36.3644C38.7372 36.2844 38.7719 36.2151 38.8412 36.1564C38.9159 36.0978 38.9959 36.0684 39.0812 36.0684C39.1345 36.0684 39.1852 36.0844 39.2332 36.1164C39.2865 36.1484 39.3265 36.1938 39.3532 36.2524L40.6892 39.2524L42.0252 36.2684ZM45.8131 40.0844C45.7117 40.0844 45.6317 40.0551 45.5731 39.9964C45.5144 39.9324 45.4851 39.8498 45.4851 39.7484V34.7244C45.4851 34.6284 45.5144 34.5511 45.5731 34.4924C45.6371 34.4338 45.7197 34.4044 45.8211 34.4044H47.7171C48.3091 34.4044 48.7677 34.5484 49.0931 34.8364C49.4237 35.1244 49.5891 35.5324 49.5891 36.0604C49.5891 36.5884 49.4237 36.9991 49.0931 37.2924C48.7624 37.5858 48.3037 37.7324 47.7171 37.7324H46.1411V39.7484C46.1411 39.8498 46.1117 39.9324 46.0531 39.9964C45.9944 40.0551 45.9144 40.0844 45.8131 40.0844ZM47.6531 37.1884C48.5117 37.1884 48.9411 36.8124 48.9411 36.0604C48.9411 35.3191 48.5117 34.9484 47.6531 34.9484H46.1411V37.1884H47.6531ZM52.1889 40.0844C52.0875 40.0844 52.0049 40.0551 51.9409 39.9964C51.8822 39.9324 51.8529 39.8498 51.8529 39.7484V34.9644H50.1329C50.0369 34.9644 49.9622 34.9404 49.9089 34.8924C49.8555 34.8444 49.8289 34.7751 49.8289 34.6844C49.8289 34.5938 49.8555 34.5244 49.9089 34.4764C49.9622 34.4284 50.0369 34.4044 50.1329 34.4044H54.2369C54.3329 34.4044 54.4075 34.4284 54.4609 34.4764C54.5142 34.5244 54.5409 34.5938 54.5409 34.6844C54.5409 34.7751 54.5142 34.8444 54.4609 34.8924C54.4075 34.9404 54.3329 34.9644 54.2369 34.9644H52.5169V39.7484C52.5169 39.8498 52.4875 39.9324 52.4289 39.9964C52.3702 40.0551 52.2902 40.0844 52.1889 40.0844ZM57.6646 40.0844C57.5633 40.0844 57.4833 40.0551 57.4246 39.9964C57.366 39.9324 57.3366 39.8498 57.3366 39.7484V34.7244C57.3366 34.6284 57.366 34.5511 57.4246 34.4924C57.4886 34.4338 57.5713 34.4044 57.6726 34.4044H59.5686C60.1606 34.4044 60.6193 34.5484 60.9446 34.8364C61.2753 35.1244 61.4406 35.5324 61.4406 36.0604C61.4406 36.5884 61.2753 36.9991 60.9446 37.2924C60.614 37.5858 60.1553 37.7324 59.5686 37.7324H57.9926V39.7484C57.9926 39.8498 57.9633 39.9324 57.9046 39.9964C57.846 40.0551 57.766 40.0844 57.6646 40.0844ZM59.5046 37.1884C60.3633 37.1884 60.7926 36.8124 60.7926 36.0604C60.7926 35.3191 60.3633 34.9484 59.5046 34.9484H57.9926V37.1884H59.5046ZM63.9029 36.0524C64.8789 36.0524 65.3669 36.5644 65.3669 37.5884V39.7644C65.3669 39.8604 65.3376 39.9378 65.2789 39.9964C65.2256 40.0551 65.1509 40.0844 65.0549 40.0844C64.9589 40.0844 64.8816 40.0551 64.8229 39.9964C64.7643 39.9378 64.7349 39.8604 64.7349 39.7644V39.3804C64.6336 39.6098 64.4789 39.7884 64.2709 39.9164C64.0629 40.0391 63.8229 40.1004 63.5509 40.1004C63.3003 40.1004 63.0683 40.0498 62.8549 39.9484C62.6469 39.8471 62.4816 39.7058 62.3589 39.5244C62.2363 39.3431 62.1749 39.1431 62.1749 38.9244C62.1749 38.6311 62.2496 38.4044 62.3989 38.2444C62.5483 38.0791 62.7936 37.9618 63.1349 37.8924C63.4763 37.8178 63.9509 37.7804 64.5589 37.7804H64.7349V37.5164C64.7349 37.1964 64.6683 36.9618 64.5349 36.8124C64.4069 36.6631 64.1963 36.5884 63.9029 36.5884C63.5403 36.5884 63.1723 36.6871 62.7989 36.8844C62.6549 36.9751 62.5536 37.0204 62.4949 37.0204C62.4309 37.0204 62.3776 36.9964 62.3349 36.9484C62.2923 36.9004 62.2709 36.8391 62.2709 36.7644C62.2709 36.6898 62.2923 36.6258 62.3349 36.5724C62.3829 36.5138 62.4576 36.4551 62.5589 36.3964C62.7456 36.2898 62.9563 36.2071 63.1909 36.1484C63.4309 36.0844 63.6683 36.0524 63.9029 36.0524ZM63.6389 39.5884C63.9589 39.5884 64.2203 39.4818 64.4229 39.2684C64.6309 39.0498 64.7349 38.7698 64.7349 38.4284V38.1964H64.5909C64.1216 38.1964 63.7643 38.2178 63.5189 38.2604C63.2736 38.2978 63.0976 38.3644 62.9909 38.4604C62.8896 38.5511 62.8389 38.6871 62.8389 38.8684C62.8389 39.0764 62.9136 39.2498 63.0629 39.3884C63.2176 39.5218 63.4096 39.5884 63.6389 39.5884ZM68.4811 36.0684C68.7051 36.0524 68.8171 36.1431 68.8171 36.3404C68.8171 36.4258 68.7931 36.4951 68.7451 36.5484C68.6971 36.5964 68.6145 36.6258 68.4971 36.6364L68.2571 36.6604C67.8998 36.6924 67.6331 36.8204 67.4571 37.0444C67.2865 37.2631 67.2011 37.5218 67.2011 37.8204V39.7644C67.2011 39.8711 67.1718 39.9511 67.1131 40.0044C67.0545 40.0578 66.9771 40.0844 66.8811 40.0844C66.7851 40.0844 66.7051 40.0578 66.6411 40.0044C66.5825 39.9458 66.5531 39.8658 66.5531 39.7644V36.3884C66.5531 36.2871 66.5851 36.2098 66.6491 36.1564C66.7131 36.0978 66.7905 36.0684 66.8811 36.0684C66.9665 36.0684 67.0385 36.0978 67.0971 36.1564C67.1558 36.2098 67.1851 36.2844 67.1851 36.3804V36.8284C67.2971 36.5938 67.4545 36.4151 67.6571 36.2924C67.8651 36.1698 68.1025 36.0978 68.3691 36.0764L68.4811 36.0684ZM70.9342 36.0524C71.9102 36.0524 72.3982 36.5644 72.3982 37.5884V39.7644C72.3982 39.8604 72.3689 39.9378 72.3102 39.9964C72.2569 40.0551 72.1822 40.0844 72.0862 40.0844C71.9902 40.0844 71.9129 40.0551 71.8542 39.9964C71.7955 39.9378 71.7662 39.8604 71.7662 39.7644V39.3804C71.6649 39.6098 71.5102 39.7884 71.3022 39.9164C71.0942 40.0391 70.8542 40.1004 70.5822 40.1004C70.3315 40.1004 70.0995 40.0498 69.8862 39.9484C69.6782 39.8471 69.5129 39.7058 69.3902 39.5244C69.2675 39.3431 69.2062 39.1431 69.2062 38.9244C69.2062 38.6311 69.2809 38.4044 69.4302 38.2444C69.5795 38.0791 69.8249 37.9618 70.1662 37.8924C70.5075 37.8178 70.9822 37.7804 71.5902 37.7804H71.7662V37.5164C71.7662 37.1964 71.6995 36.9618 71.5662 36.8124C71.4382 36.6631 71.2275 36.5884 70.9342 36.5884C70.5715 36.5884 70.2035 36.6871 69.8302 36.8844C69.6862 36.9751 69.5849 37.0204 69.5262 37.0204C69.4622 37.0204 69.4089 36.9964 69.3662 36.9484C69.3235 36.9004 69.3022 36.8391 69.3022 36.7644C69.3022 36.6898 69.3235 36.6258 69.3662 36.5724C69.4142 36.5138 69.4889 36.4551 69.5902 36.3964C69.7769 36.2898 69.9875 36.2071 70.2222 36.1484C70.4622 36.0844 70.6995 36.0524 70.9342 36.0524ZM70.6702 39.5884C70.9902 39.5884 71.2515 39.4818 71.4542 39.2684C71.6622 39.0498 71.7662 38.7698 71.7662 38.4284V38.1964H71.6222C71.1529 38.1964 70.7955 38.2178 70.5502 38.2604C70.3049 38.2978 70.1289 38.3644 70.0222 38.4604C69.9209 38.5511 69.8702 38.6871 69.8702 38.8684C69.8702 39.0764 69.9449 39.2498 70.0942 39.3884C70.2489 39.5218 70.4409 39.5884 70.6702 39.5884ZM77.9204 36.0524C78.7844 36.0524 79.2164 36.5671 79.2164 37.5964V39.7644C79.2164 39.8658 79.187 39.9458 79.1284 40.0044C79.0697 40.0578 78.9924 40.0844 78.8964 40.0844C78.8004 40.0844 78.7204 40.0578 78.6564 40.0044C78.5977 39.9458 78.5684 39.8658 78.5684 39.7644V37.6124C78.5684 37.2551 78.5044 36.9964 78.3764 36.8364C78.2484 36.6764 78.0484 36.5964 77.7764 36.5964C77.451 36.5964 77.195 36.7058 77.0084 36.9244C76.8217 37.1431 76.7284 37.4391 76.7284 37.8124V39.7644C76.7284 39.8658 76.6964 39.9458 76.6324 40.0044C76.5737 40.0578 76.4964 40.0844 76.4004 40.0844C76.3044 40.0844 76.227 40.0578 76.1684 40.0044C76.1097 39.9458 76.0804 39.8658 76.0804 39.7644V37.6124C76.0804 37.2551 76.0164 36.9964 75.8884 36.8364C75.7604 36.6764 75.5577 36.5964 75.2804 36.5964C74.9604 36.5964 74.7044 36.7058 74.5124 36.9244C74.3257 37.1431 74.2324 37.4391 74.2324 37.8124V39.7644C74.2324 39.8658 74.203 39.9458 74.1444 40.0044C74.0857 40.0578 74.0084 40.0844 73.9124 40.0844C73.8164 40.0844 73.7364 40.0578 73.6724 40.0044C73.6137 39.9458 73.5844 39.8658 73.5844 39.7644V36.3884C73.5844 36.2924 73.6137 36.2151 73.6724 36.1564C73.7364 36.0978 73.8164 36.0684 73.9124 36.0684C74.003 36.0684 74.0777 36.0978 74.1364 36.1564C74.195 36.2098 74.2244 36.2844 74.2244 36.3804V36.7644C74.3417 36.5351 74.5044 36.3591 74.7124 36.2364C74.9204 36.1138 75.1604 36.0524 75.4324 36.0524C76.0404 36.0524 76.4377 36.3084 76.6244 36.8204C76.7364 36.5858 76.907 36.3991 77.1364 36.2604C77.3657 36.1218 77.627 36.0524 77.9204 36.0524ZM80.7249 40.0844C80.6289 40.0844 80.5489 40.0578 80.4849 40.0044C80.4262 39.9458 80.3969 39.8658 80.3969 39.7644V36.3884C80.3969 36.2871 80.4262 36.2098 80.4849 36.1564C80.5489 36.0978 80.6289 36.0684 80.7249 36.0684C80.8209 36.0684 80.8982 36.0978 80.9569 36.1564C81.0155 36.2098 81.0449 36.2871 81.0449 36.3884V39.7644C81.0449 39.8711 81.0155 39.9511 80.9569 40.0044C80.8982 40.0578 80.8209 40.0844 80.7249 40.0844ZM80.7249 35.2284C80.5969 35.2284 80.4929 35.1911 80.4129 35.1164C80.3329 35.0418 80.2929 34.9431 80.2929 34.8204C80.2929 34.7031 80.3329 34.6071 80.4129 34.5324C80.4929 34.4578 80.5969 34.4204 80.7249 34.4204C80.8529 34.4204 80.9569 34.4578 81.0369 34.5324C81.1169 34.6071 81.1569 34.7031 81.1569 34.8204C81.1569 34.9431 81.1169 35.0418 81.0369 35.1164C80.9569 35.1911 80.8529 35.2284 80.7249 35.2284ZM84.0563 39.5724C84.2429 39.5884 84.3363 39.6738 84.3363 39.8284C84.3363 39.9191 84.3016 39.9884 84.2323 40.0364C84.1683 40.0791 84.0696 40.0951 83.9363 40.0844L83.7203 40.0684C83.2936 40.0364 82.9789 39.9084 82.7763 39.6844C82.5736 39.4604 82.4723 39.1218 82.4723 38.6684V36.6604H81.9363C81.8456 36.6604 81.7736 36.6391 81.7203 36.5964C81.6723 36.5484 81.6482 36.4871 81.6482 36.4124C81.6482 36.3324 81.6723 36.2684 81.7203 36.2204C81.7736 36.1724 81.8456 36.1484 81.9363 36.1484H82.4723V35.2444C82.4723 35.1431 82.5016 35.0658 82.5603 35.0124C82.6189 34.9538 82.6989 34.9244 82.8003 34.9244C82.8963 34.9244 82.9736 34.9538 83.0323 35.0124C83.0909 35.0658 83.1203 35.1431 83.1203 35.2444V36.1484H84.0082C84.0936 36.1484 84.1603 36.1724 84.2083 36.2204C84.2616 36.2684 84.2883 36.3324 84.2883 36.4124C84.2883 36.4871 84.2616 36.5484 84.2083 36.5964C84.1603 36.6391 84.0936 36.6604 84.0082 36.6604H83.1203V38.7004C83.1203 38.9938 83.1789 39.2071 83.2963 39.3404C83.4189 39.4684 83.6003 39.5404 83.8403 39.5564L84.0563 39.5724ZM86.903 36.0684C87.127 36.0524 87.239 36.1431 87.239 36.3404C87.239 36.4258 87.215 36.4951 87.167 36.5484C87.119 36.5964 87.0363 36.6258 86.919 36.6364L86.679 36.6604C86.3217 36.6924 86.055 36.8204 85.879 37.0444C85.7083 37.2631 85.623 37.5218 85.623 37.8204V39.7644C85.623 39.8711 85.5937 39.9511 85.535 40.0044C85.4763 40.0578 85.399 40.0844 85.303 40.0844C85.207 40.0844 85.127 40.0578 85.063 40.0044C85.0043 39.9458 84.975 39.8658 84.975 39.7644V36.3884C84.975 36.2871 85.007 36.2098 85.071 36.1564C85.135 36.0978 85.2123 36.0684 85.303 36.0684C85.3883 36.0684 85.4603 36.0978 85.519 36.1564C85.5777 36.2098 85.607 36.2844 85.607 36.3804V36.8284C85.719 36.5938 85.8763 36.4151 86.079 36.2924C86.287 36.1698 86.5243 36.0978 86.791 36.0764L86.903 36.0684ZM89.3561 36.0524C90.3321 36.0524 90.8201 36.5644 90.8201 37.5884V39.7644C90.8201 39.8604 90.7907 39.9378 90.7321 39.9964C90.6787 40.0551 90.6041 40.0844 90.5081 40.0844C90.4121 40.0844 90.3347 40.0551 90.2761 39.9964C90.2174 39.9378 90.1881 39.8604 90.1881 39.7644V39.3804C90.0867 39.6098 89.9321 39.7884 89.7241 39.9164C89.5161 40.0391 89.2761 40.1004 89.0041 40.1004C88.7534 40.1004 88.5214 40.0498 88.3081 39.9484C88.1001 39.8471 87.9347 39.7058 87.8121 39.5244C87.6894 39.3431 87.6281 39.1431 87.6281 38.9244C87.6281 38.6311 87.7027 38.4044 87.8521 38.2444C88.0014 38.0791 88.2467 37.9618 88.5881 37.8924C88.9294 37.8178 89.4041 37.7804 90.0121 37.7804H90.1881V37.5164C90.1881 37.1964 90.1214 36.9618 89.9881 36.8124C89.8601 36.6631 89.6494 36.5884 89.3561 36.5884C88.9934 36.5884 88.6254 36.6871 88.2521 36.8844C88.1081 36.9751 88.0067 37.0204 87.9481 37.0204C87.8841 37.0204 87.8307 36.9964 87.7881 36.9484C87.7454 36.9004 87.7241 36.8391 87.7241 36.7644C87.7241 36.6898 87.7454 36.6258 87.7881 36.5724C87.8361 36.5138 87.9107 36.4551 88.0121 36.3964C88.1987 36.2898 88.4094 36.2071 88.6441 36.1484C88.8841 36.0844 89.1214 36.0524 89.3561 36.0524ZM89.0921 39.5884C89.4121 39.5884 89.6734 39.4818 89.8761 39.2684C90.0841 39.0498 90.1881 38.7698 90.1881 38.4284V38.1964H90.0441C89.5747 38.1964 89.2174 38.2178 88.9721 38.2604C88.7267 38.2978 88.5507 38.3644 88.4441 38.4604C88.3427 38.5511 88.2921 38.6871 88.2921 38.8684C88.2921 39.0764 88.3667 39.2498 88.5161 39.3884C88.6707 39.5218 88.8627 39.5884 89.0921 39.5884ZM99.0208 39.6684C99.0421 39.7111 99.0528 39.7564 99.0528 39.8044C99.0528 39.8844 99.0208 39.9511 98.9568 40.0044C98.8981 40.0578 98.8261 40.0844 98.7408 40.0844C98.6074 40.0844 98.5141 40.0204 98.4608 39.8924L97.8928 38.5964H94.8768L94.3008 39.8924C94.2474 40.0204 94.1541 40.0844 94.0208 40.0844C93.9354 40.0844 93.8608 40.0578 93.7968 40.0044C93.7328 39.9458 93.7008 39.8764 93.7008 39.7964C93.7008 39.7538 93.7114 39.7111 93.7327 39.6684L96.0208 34.5804C96.0528 34.5058 96.1008 34.4498 96.1648 34.4124C96.2288 34.3751 96.2981 34.3564 96.3728 34.3564C96.4528 34.3564 96.5248 34.3778 96.5888 34.4204C96.6528 34.4578 96.7008 34.5111 96.7328 34.5804L99.0208 39.6684ZM97.6528 38.0524L96.3808 35.1804L95.1168 38.0524H97.6528ZM100.209 40.0844C100.113 40.0844 100.033 40.0578 99.9693 40.0044C99.9106 39.9458 99.8813 39.8658 99.8813 39.7644V34.6844C99.8813 34.5831 99.9106 34.5058 99.9693 34.4524C100.033 34.3938 100.113 34.3644 100.209 34.3644C100.3 34.3644 100.375 34.3938 100.433 34.4524C100.497 34.5058 100.529 34.5831 100.529 34.6844V39.7644C100.529 39.8658 100.497 39.9458 100.433 40.0044C100.375 40.0578 100.3 40.0844 100.209 40.0844ZM103.461 34.9164C103.178 34.9378 102.965 35.0284 102.821 35.1884C102.677 35.3431 102.605 35.5778 102.605 35.8924V36.1484H103.493C103.583 36.1484 103.653 36.1724 103.701 36.2204C103.749 36.2684 103.773 36.3324 103.773 36.4124C103.773 36.4924 103.749 36.5538 103.701 36.5964C103.653 36.6391 103.583 36.6604 103.493 36.6604H102.605V39.7644C102.605 39.8658 102.573 39.9458 102.509 40.0044C102.45 40.0578 102.375 40.0844 102.285 40.0844C102.189 40.0844 102.109 40.0578 102.045 40.0044C101.986 39.9458 101.957 39.8658 101.957 39.7644V36.6604H101.421C101.33 36.6604 101.258 36.6391 101.205 36.5964C101.157 36.5484 101.133 36.4871 101.133 36.4124C101.133 36.3324 101.157 36.2684 101.205 36.2204C101.258 36.1724 101.33 36.1484 101.421 36.1484H101.957V36.0044C101.957 35.5244 102.077 35.1484 102.317 34.8764C102.557 34.5991 102.901 34.4444 103.349 34.4124L103.557 34.3964C103.695 34.3858 103.794 34.3991 103.853 34.4364C103.917 34.4738 103.949 34.5404 103.949 34.6364C103.949 34.7911 103.855 34.8791 103.669 34.9004L103.461 34.9164ZM105.919 36.0524C106.895 36.0524 107.383 36.5644 107.383 37.5884V39.7644C107.383 39.8604 107.353 39.9378 107.295 39.9964C107.241 40.0551 107.167 40.0844 107.071 40.0844C106.975 40.0844 106.897 40.0551 106.839 39.9964C106.78 39.9378 106.751 39.8604 106.751 39.7644V39.3804C106.649 39.6098 106.495 39.7884 106.287 39.9164C106.079 40.0391 105.839 40.1004 105.567 40.1004C105.316 40.1004 105.084 40.0498 104.871 39.9484C104.663 39.8471 104.497 39.7058 104.375 39.5244C104.252 39.3431 104.191 39.1431 104.191 38.9244C104.191 38.6311 104.265 38.4044 104.415 38.2444C104.564 38.0791 104.809 37.9618 105.151 37.8924C105.492 37.8178 105.967 37.7804 106.575 37.7804H106.751V37.5164C106.751 37.1964 106.684 36.9618 106.551 36.8124C106.423 36.6631 106.212 36.5884 105.919 36.5884C105.556 36.5884 105.188 36.6871 104.815 36.8844C104.671 36.9751 104.569 37.0204 104.511 37.0204C104.447 37.0204 104.393 36.9964 104.351 36.9484C104.308 36.9004 104.287 36.8391 104.287 36.7644C104.287 36.6898 104.308 36.6258 104.351 36.5724C104.399 36.5138 104.473 36.4551 104.575 36.3964C104.761 36.2898 104.972 36.2071 105.207 36.1484C105.447 36.0844 105.684 36.0524 105.919 36.0524ZM105.655 39.5884C105.975 39.5884 106.236 39.4818 106.439 39.2684C106.647 39.0498 106.751 38.7698 106.751 38.4284V38.1964H106.607C106.137 38.1964 105.78 38.2178 105.535 38.2604C105.289 38.2978 105.113 38.3644 105.007 38.4604C104.905 38.5511 104.855 38.6871 104.855 38.8684C104.855 39.0764 104.929 39.2498 105.079 39.3884C105.233 39.5218 105.425 39.5884 105.655 39.5884ZM112.527 40.1084C112.127 40.1084 111.743 40.0498 111.375 39.9324C111.013 39.8098 110.722 39.6471 110.503 39.4444C110.423 39.3698 110.383 39.2764 110.383 39.1644C110.383 39.0898 110.405 39.0258 110.447 38.9724C110.49 38.9138 110.541 38.8844 110.599 38.8844C110.669 38.8844 110.743 38.9138 110.823 38.9724C111.319 39.3564 111.885 39.5484 112.519 39.5484C112.978 39.5484 113.33 39.4604 113.575 39.2844C113.821 39.1084 113.943 38.8578 113.943 38.5324C113.943 38.3458 113.885 38.1964 113.767 38.0844C113.65 37.9671 113.495 37.8738 113.303 37.8044C113.111 37.7351 112.853 37.6631 112.527 37.5884C112.09 37.4871 111.73 37.3804 111.447 37.2684C111.17 37.1564 110.943 36.9964 110.767 36.7884C110.597 36.5804 110.511 36.3084 110.511 35.9724C110.511 35.6524 110.597 35.3698 110.767 35.1244C110.943 34.8738 111.186 34.6818 111.495 34.5484C111.81 34.4098 112.167 34.3404 112.567 34.3404C112.941 34.3404 113.287 34.3991 113.607 34.5164C113.933 34.6284 114.205 34.7911 114.423 35.0044C114.509 35.0898 114.551 35.1831 114.551 35.2844C114.551 35.3591 114.53 35.4258 114.487 35.4844C114.445 35.5378 114.394 35.5644 114.335 35.5644C114.277 35.5644 114.199 35.5351 114.103 35.4764C113.842 35.2631 113.599 35.1138 113.375 35.0284C113.151 34.9431 112.882 34.9004 112.567 34.9004C112.125 34.9004 111.781 34.9938 111.535 35.1804C111.29 35.3618 111.167 35.6178 111.167 35.9484C111.167 36.2311 111.274 36.4444 111.487 36.5884C111.706 36.7271 112.039 36.8498 112.487 36.9564C112.973 37.0738 113.354 37.1831 113.631 37.2844C113.909 37.3804 114.138 37.5271 114.319 37.7244C114.506 37.9218 114.599 38.1858 114.599 38.5164C114.599 38.8311 114.511 39.1084 114.335 39.3484C114.165 39.5884 113.922 39.7751 113.607 39.9084C113.293 40.0418 112.933 40.1084 112.527 40.1084ZM118.585 39.1404C118.643 39.1404 118.694 39.1644 118.737 39.2124C118.779 39.2604 118.801 39.3218 118.801 39.3964C118.801 39.5298 118.707 39.6524 118.521 39.7644C118.329 39.8764 118.126 39.9618 117.913 40.0204C117.699 40.0738 117.491 40.1004 117.289 40.1004C116.686 40.1004 116.209 39.9218 115.857 39.5644C115.51 39.2071 115.337 38.7138 115.337 38.0844C115.337 37.6844 115.414 37.3324 115.569 37.0284C115.723 36.7191 115.939 36.4791 116.217 36.3084C116.499 36.1378 116.819 36.0524 117.177 36.0524C117.683 36.0524 118.086 36.2178 118.385 36.5484C118.683 36.8791 118.833 37.3271 118.833 37.8924C118.833 37.9991 118.811 38.0764 118.769 38.1244C118.726 38.1724 118.657 38.1964 118.561 38.1964H115.985C116.033 39.1138 116.467 39.5724 117.289 39.5724C117.497 39.5724 117.675 39.5458 117.825 39.4924C117.974 39.4338 118.134 39.3564 118.305 39.2604C118.443 39.1804 118.537 39.1404 118.585 39.1404ZM117.185 36.5564C116.843 36.5564 116.569 36.6631 116.361 36.8764C116.158 37.0898 116.038 37.3911 116.001 37.7804H118.265C118.254 37.3858 118.155 37.0844 117.969 36.8764C117.782 36.6631 117.521 36.5564 117.185 36.5564ZM122.9 39.5324C122.985 39.6124 123.028 39.6978 123.028 39.7884C123.028 39.8684 122.998 39.9378 122.94 39.9964C122.886 40.0551 122.82 40.0844 122.74 40.0844C122.67 40.0844 122.598 40.0524 122.524 39.9884L120.436 38.1884V39.7644C120.436 39.8658 120.404 39.9458 120.34 40.0044C120.281 40.0578 120.206 40.0844 120.116 40.0844C120.02 40.0844 119.94 40.0578 119.876 40.0044C119.817 39.9458 119.788 39.8658 119.788 39.7644V34.6844C119.788 34.5831 119.817 34.5058 119.876 34.4524C119.94 34.3938 120.02 34.3644 120.116 34.3644C120.206 34.3644 120.281 34.3938 120.34 34.4524C120.404 34.5058 120.436 34.5831 120.436 34.6844V37.9324L122.348 36.1804C122.412 36.1164 122.484 36.0844 122.564 36.0844C122.644 36.0844 122.713 36.1138 122.772 36.1724C122.83 36.2311 122.86 36.3004 122.86 36.3804C122.86 36.4711 122.822 36.5511 122.748 36.6204L121.172 38.0284L122.9 39.5324ZM126.748 36.0684C126.849 36.0684 126.926 36.0978 126.98 36.1564C127.038 36.2151 127.068 36.2924 127.068 36.3884V39.7724C127.068 39.8631 127.038 39.9378 126.98 39.9964C126.926 40.0551 126.849 40.0844 126.748 40.0844C126.652 40.0844 126.574 40.0578 126.516 40.0044C126.462 39.9458 126.436 39.8711 126.436 39.7804V39.3804C126.313 39.6151 126.14 39.7938 125.916 39.9164C125.697 40.0391 125.449 40.1004 125.172 40.1004C124.708 40.1004 124.358 39.9724 124.124 39.7164C123.889 39.4551 123.772 39.0711 123.772 38.5644V36.3884C123.772 36.2924 123.801 36.2151 123.86 36.1564C123.918 36.0978 123.998 36.0684 124.1 36.0684C124.201 36.0684 124.278 36.0978 124.332 36.1564C124.39 36.2151 124.42 36.2924 124.42 36.3884V38.5484C124.42 38.8951 124.489 39.1511 124.628 39.3164C124.766 39.4764 124.985 39.5564 125.284 39.5564C125.625 39.5564 125.9 39.4471 126.108 39.2284C126.316 39.0044 126.42 38.7111 126.42 38.3484V36.3884C126.42 36.2924 126.449 36.2151 126.508 36.1564C126.566 36.0978 126.646 36.0684 126.748 36.0684ZM130.2 36.0684C130.424 36.0524 130.536 36.1431 130.536 36.3404C130.536 36.4258 130.512 36.4951 130.464 36.5484C130.416 36.5964 130.333 36.6258 130.216 36.6364L129.976 36.6604C129.619 36.6924 129.352 36.8204 129.176 37.0444C129.005 37.2631 128.92 37.5218 128.92 37.8204V39.7644C128.92 39.8711 128.891 39.9511 128.832 40.0044C128.773 40.0578 128.696 40.0844 128.6 40.0844C128.504 40.0844 128.424 40.0578 128.36 40.0044C128.301 39.9458 128.272 39.8658 128.272 39.7644V36.3884C128.272 36.2871 128.304 36.2098 128.368 36.1564C128.432 36.0978 128.509 36.0684 128.6 36.0684C128.685 36.0684 128.757 36.0978 128.816 36.1564C128.875 36.2098 128.904 36.2844 128.904 36.3804V36.8284C129.016 36.5938 129.173 36.4151 129.376 36.2924C129.584 36.1698 129.821 36.0978 130.088 36.0764L130.2 36.0684ZM131.42 40.0844C131.324 40.0844 131.244 40.0578 131.18 40.0044C131.122 39.9458 131.092 39.8658 131.092 39.7644V36.3884C131.092 36.2871 131.122 36.2098 131.18 36.1564C131.244 36.0978 131.324 36.0684 131.42 36.0684C131.516 36.0684 131.594 36.0978 131.652 36.1564C131.711 36.2098 131.74 36.2871 131.74 36.3884V39.7644C131.74 39.8711 131.711 39.9511 131.652 40.0044C131.594 40.0578 131.516 40.0844 131.42 40.0844ZM131.42 35.2284C131.292 35.2284 131.188 35.1911 131.108 35.1164C131.028 35.0418 130.988 34.9431 130.988 34.8204C130.988 34.7031 131.028 34.6071 131.108 34.5324C131.188 34.4578 131.292 34.4204 131.42 34.4204C131.548 34.4204 131.652 34.4578 131.732 34.5324C131.812 34.6071 131.852 34.7031 131.852 34.8204C131.852 34.9431 131.812 35.0418 131.732 35.1164C131.652 35.1911 131.548 35.2284 131.42 35.2284ZM134.752 39.5724C134.938 39.5884 135.032 39.6738 135.032 39.8284C135.032 39.9191 134.997 39.9884 134.928 40.0364C134.864 40.0791 134.765 40.0951 134.632 40.0844L134.416 40.0684C133.989 40.0364 133.674 39.9084 133.472 39.6844C133.269 39.4604 133.168 39.1218 133.168 38.6684V36.6604H132.632C132.541 36.6604 132.469 36.6391 132.416 36.5964C132.368 36.5484 132.344 36.4871 132.344 36.4124C132.344 36.3324 132.368 36.2684 132.416 36.2204C132.469 36.1724 132.541 36.1484 132.632 36.1484H133.168V35.2444C133.168 35.1431 133.197 35.0658 133.256 35.0124C133.314 34.9538 133.394 34.9244 133.496 34.9244C133.592 34.9244 133.669 34.9538 133.728 35.0124C133.786 35.0658 133.816 35.1431 133.816 35.2444V36.1484H134.704C134.789 36.1484 134.856 36.1724 134.904 36.2204C134.957 36.2684 134.984 36.3324 134.984 36.4124C134.984 36.4871 134.957 36.5484 134.904 36.5964C134.856 36.6391 134.789 36.6604 134.704 36.6604H133.816V38.7004C133.816 38.9938 133.874 39.2071 133.992 39.3404C134.114 39.4684 134.296 39.5404 134.536 39.5564L134.752 39.5724ZM137.262 36.0524C138.238 36.0524 138.726 36.5644 138.726 37.5884V39.7644C138.726 39.8604 138.697 39.9378 138.638 39.9964C138.585 40.0551 138.51 40.0844 138.414 40.0844C138.318 40.0844 138.241 40.0551 138.182 39.9964C138.124 39.9378 138.094 39.8604 138.094 39.7644V39.3804C137.993 39.6098 137.838 39.7884 137.63 39.9164C137.422 40.0391 137.182 40.1004 136.91 40.1004C136.66 40.1004 136.428 40.0498 136.214 39.9484C136.006 39.8471 135.841 39.7058 135.718 39.5244C135.596 39.3431 135.534 39.1431 135.534 38.9244C135.534 38.6311 135.609 38.4044 135.758 38.2444C135.908 38.0791 136.153 37.9618 136.494 37.8924C136.836 37.8178 137.31 37.7804 137.918 37.7804H138.094V37.5164C138.094 37.1964 138.028 36.9618 137.894 36.8124C137.766 36.6631 137.556 36.5884 137.262 36.5884C136.9 36.5884 136.532 36.6871 136.158 36.8844C136.014 36.9751 135.913 37.0204 135.854 37.0204C135.79 37.0204 135.737 36.9964 135.694 36.9484C135.652 36.9004 135.63 36.8391 135.63 36.7644C135.63 36.6898 135.652 36.6258 135.694 36.5724C135.742 36.5138 135.817 36.4551 135.918 36.3964C136.105 36.2898 136.316 36.2071 136.55 36.1484C136.79 36.0844 137.028 36.0524 137.262 36.0524ZM136.998 39.5884C137.318 39.5884 137.58 39.4818 137.782 39.2684C137.99 39.0498 138.094 38.7698 138.094 38.4284V38.1964H137.95C137.481 38.1964 137.124 38.2178 136.878 38.2604C136.633 38.2978 136.457 38.3644 136.35 38.4604C136.249 38.5511 136.198 38.6871 136.198 38.8684C136.198 39.0764 136.273 39.2498 136.422 39.3884C136.577 39.5218 136.769 39.5884 136.998 39.5884ZM141.225 40.1004C140.979 40.1004 140.745 40.0711 140.521 40.0124C140.302 39.9538 140.107 39.8711 139.937 39.7644C139.841 39.7004 139.771 39.6418 139.729 39.5884C139.691 39.5298 139.673 39.4604 139.673 39.3804C139.673 39.3111 139.691 39.2551 139.729 39.2124C139.771 39.1644 139.825 39.1404 139.889 39.1404C139.953 39.1404 140.046 39.1804 140.169 39.2604C140.329 39.3564 140.486 39.4338 140.641 39.4924C140.801 39.5458 140.998 39.5724 141.233 39.5724C141.521 39.5724 141.745 39.5218 141.905 39.4204C142.065 39.3191 142.145 39.1724 142.145 38.9804C142.145 38.8631 142.115 38.7698 142.057 38.7004C141.998 38.6258 141.897 38.5618 141.753 38.5084C141.609 38.4498 141.398 38.3911 141.121 38.3324C140.651 38.2311 140.315 38.0951 140.113 37.9244C139.91 37.7538 139.809 37.5218 139.809 37.2284C139.809 36.9991 139.873 36.7964 140.001 36.6204C140.129 36.4444 140.305 36.3058 140.529 36.2044C140.758 36.1031 141.017 36.0524 141.305 36.0524C141.513 36.0524 141.713 36.0818 141.905 36.1404C142.102 36.1938 142.275 36.2711 142.425 36.3724C142.606 36.5004 142.697 36.6338 142.697 36.7724C142.697 36.8418 142.675 36.9004 142.633 36.9484C142.59 36.9964 142.539 37.0204 142.481 37.0204C142.417 37.0204 142.321 36.9751 142.193 36.8844C142.043 36.7884 141.902 36.7138 141.769 36.6604C141.635 36.6071 141.47 36.5804 141.273 36.5804C141.022 36.5804 140.819 36.6364 140.665 36.7484C140.515 36.8604 140.441 37.0098 140.441 37.1964C140.441 37.3138 140.467 37.4098 140.521 37.4844C140.579 37.5538 140.673 37.6178 140.801 37.6764C140.934 37.7298 141.123 37.7831 141.368 37.8364C141.731 37.9164 142.011 38.0044 142.209 38.1004C142.411 38.1964 142.555 38.3138 142.641 38.4524C142.726 38.5911 142.769 38.7671 142.769 38.9804C142.769 39.3164 142.627 39.5884 142.345 39.7964C142.062 39.9991 141.689 40.1004 141.225 40.1004Z" fill="white"/>
</svg>
