<svg width="35" height="48" viewBox="0 0 35 48" fill="none" xmlns="http://www.w3.org/2000/svg">
<path d="M14.5625 30.264L19.79 47.8135L24.084 41.6525L31.1785 44.2663L25.5776 27.2769L14.5625 30.264Z" fill="url(#paint0_linear_7778_4354)"/>
<g opacity="0.7">
<path d="M17.5005 35.1594L16.9492 35.3276L20.4433 46.7811L20.9947 46.6129L17.5005 35.1594Z" fill="#FFCE45"/>
</g>
<g opacity="0.7">
<path d="M25.4794 29.9918L24.9297 30.165L29.2236 43.7942L29.7733 43.621L25.4794 29.9918Z" fill="#FFCE45"/>
</g>
<path d="M8.21028 28.397L2.60938 44.6396L10.2639 42.0259L14.1846 48.0002L20.7189 30.6373L8.21028 28.397Z" fill="url(#paint1_linear_7778_4354)"/>
<g opacity="0.7">
<path d="M9.62227 27.7444L4.39453 43.8008L4.94257 43.9792L10.1703 27.9228L9.62227 27.7444Z" fill="#FFCE45"/>
</g>
<g opacity="0.7">
<path d="M18.9598 29.6058L12.9844 46.5957L13.5282 46.787L19.5036 29.7971L18.9598 29.6058Z" fill="#FFCE45"/>
</g>
<path d="M0 17.0086C0 16.2236 1.91331 15.5834 2.02095 14.8282C2.13128 14.0542 0.476232 12.9034 0.691646 12.1686C0.910795 11.421 2.92696 11.3466 3.24655 10.648C3.56967 9.94151 2.30824 8.36862 2.72531 7.72094C3.14494 7.06932 5.09991 7.56671 5.60569 6.98343C6.11245 6.3991 5.34343 4.53446 5.92783 4.0277C6.51105 3.52192 8.24773 4.54704 8.89928 4.12742C9.54696 3.71035 9.33246 1.70433 10.0389 1.38121C10.7376 1.06163 12.1137 2.53487 12.8613 2.31566C13.5961 2.10024 13.9582 0.115454 14.7322 0.00512577C15.4874 -0.102516 16.3911 1.69942 17.176 1.69942C17.961 1.69942 18.8646 -0.102516 19.6198 0.00512577C20.3938 0.115454 20.756 2.10024 21.4908 2.31566C22.2384 2.5348 23.6146 1.06163 24.3132 1.38121C25.0197 1.70433 24.8052 3.71035 25.4528 4.12742C26.1045 4.54704 27.8411 3.52192 28.4244 4.0277C29.0087 4.53446 28.2397 6.3991 28.7465 6.98343C29.2523 7.56665 31.2073 7.06932 31.6269 7.72094C32.044 8.36862 30.7825 9.94151 31.1056 10.648C31.4252 11.3466 33.4414 11.421 33.6605 12.1686C33.876 12.9034 32.2209 14.0541 32.3312 14.8281C32.4388 15.5833 34.3521 16.2235 34.3521 17.0085C34.3521 17.7935 32.4388 18.4337 32.3312 19.1889C32.2208 19.9629 33.8759 21.1137 33.6605 21.8485C33.4413 22.5961 31.4252 22.6705 31.1056 23.3691C30.7825 24.0756 32.0439 25.6485 31.6268 26.2962C31.2072 26.9478 29.2522 26.4504 28.7464 27.0337C28.2397 27.618 29.0087 29.4826 28.4243 29.9894C27.8411 30.4952 26.1044 29.4701 25.4528 29.8897C24.8051 30.3068 25.0196 32.3128 24.3131 32.6359C23.6145 32.9555 22.2383 31.4822 21.4907 31.7015C20.7559 31.9169 20.3938 33.9017 19.6198 34.012C18.8646 34.1196 17.961 32.3177 17.176 32.3177C16.3911 32.3177 15.4874 34.1196 14.7322 34.012C13.9582 33.9017 13.5961 31.9169 12.8613 31.7015C12.1137 31.4823 10.7375 32.9555 10.0388 32.6359C9.33234 32.3128 9.54683 30.3068 8.89915 29.8897C8.24753 29.4701 6.51092 30.4952 5.92764 29.9894C5.3433 29.4826 6.11232 27.618 5.60549 27.0337C5.09971 26.4505 3.14467 26.9478 2.72511 26.2962C2.30804 25.6485 3.56947 24.0756 3.24635 23.3691C2.92677 22.6705 0.910599 22.5961 0.69145 21.8485C0.476036 21.1137 2.13108 19.963 2.02076 19.189C1.91331 18.4337 0 17.7935 0 17.0086Z" fill="#FCAB28"/>
<path d="M17.1749 30.824C24.805 30.824 30.9905 24.6385 30.9905 17.0084C30.9905 9.3783 24.805 3.19287 17.1749 3.19287C9.5448 3.19287 3.35938 9.3783 3.35938 17.0084C3.35938 24.6385 9.5448 30.824 17.1749 30.824Z" fill="#FFCE45"/>
<path d="M17.1738 31.1043C13.4087 31.1043 9.86899 29.6382 7.20664 26.9758C4.54436 24.3135 3.07812 20.7738 3.07812 17.0087C3.07812 13.2436 4.5443 9.70395 7.20664 7.0416C9.86899 4.37932 13.4087 2.91309 17.1738 2.91309C20.9388 2.91309 24.4785 4.37925 27.1409 7.0416C29.8031 9.70395 31.2694 13.2436 31.2694 17.0087C31.2694 20.7738 29.8032 24.3135 27.1409 26.9758C24.4785 29.6382 20.9389 31.1043 17.1738 31.1043ZM17.1738 3.47324C9.71024 3.47324 3.63822 9.54527 3.63822 17.0088C3.63822 24.4723 9.71024 30.5443 17.1738 30.5443C24.6373 30.5443 30.7093 24.4723 30.7093 17.0088C30.7093 9.54527 24.6373 3.47324 17.1738 3.47324Z" fill="#FCAB28"/>
<path d="M17.1762 26.9036C22.641 26.9036 27.0711 22.4735 27.0711 17.0087C27.0711 11.5439 22.641 7.11377 17.1762 7.11377C11.7114 7.11377 7.28125 11.5439 7.28125 17.0087C7.28125 22.4735 11.7114 26.9036 17.1762 26.9036Z" fill="#FFD733"/>
<path d="M25.3908 13.0878C25.3908 12.4577 25.3294 11.8422 25.2168 11.2448C23.421 8.74396 20.4899 7.11328 17.1762 7.11328C11.7113 7.11328 7.28125 11.5434 7.28125 17.0082C7.28125 17.6383 7.3427 18.2538 7.45526 18.8512C9.25103 21.3521 12.1821 22.9827 15.496 22.9827C20.9607 22.9827 25.3908 18.5527 25.3908 13.0878Z" fill="#FFE266"/>
<path d="M17.3355 27.1655C11.7205 27.1655 7.15234 22.5974 7.15234 16.9824C7.15234 11.3674 11.7205 6.79932 17.3355 6.79932C22.9504 6.79932 27.5186 11.3674 27.5186 16.9824C27.5186 22.5974 22.9504 27.1655 17.3355 27.1655ZM17.3355 7.37572C12.0383 7.37572 7.72875 11.6853 7.72875 16.9824C7.72875 22.2796 12.0383 26.5891 17.3355 26.5891C22.6326 26.5891 26.9422 22.2796 26.9422 16.9824C26.9422 11.6853 22.6326 7.37572 17.3355 7.37572Z" fill="#FCAB28"/>
<g filter="url(#filter0_d_7778_4354)">
<path d="M17.2931 13.8395L14.8166 21.2095H13.08L16.3264 12.5207H17.4363L17.2931 13.8395ZM19.3639 21.2095L16.8754 13.8395L16.7262 12.5207H17.8421L21.1064 21.2095H19.3639ZM19.2505 17.981V19.276H14.5898V17.981H19.2505Z" fill="url(#paint2_linear_7778_4354)"/>
</g>
<path d="M23.6754 6.45656L24.5471 4.25439L25.3631 6.48709L26.8909 7.35884L25.3327 8.17483L24.4609 10.9752L23.6449 8.1443L22.1172 7.27256L23.6754 6.45656Z" fill="white"/>
<path d="M4.10899 13.2622L4.98074 11.0601L5.79673 13.2928L7.32449 14.1645L5.76627 14.9805L4.89446 17.7808L4.07853 14.95L2.55078 14.0782L4.10899 13.2622Z" fill="white"/>
<path d="M5.08699 24.9363L5.55307 23.8213L5.98933 24.9518L6.80614 25.3932L5.97305 25.8064L5.50694 27.2243L5.07071 25.7909L4.25391 25.3495L5.08699 24.9363Z" fill="white"/>
<path d="M25.2088 27.4738L25.9856 25.5225L26.7127 27.5008L28.074 28.2733L26.6855 28.9963L25.9087 31.4777L25.1816 28.9693L23.8203 28.1968L25.2088 27.4738Z" fill="white"/>
<path d="M16.701 2.8024L17.4778 0.851074L18.2049 2.82945L19.5662 3.6019L18.1777 4.32494L17.4009 6.80628L16.6738 4.29789L15.3125 3.52544L16.701 2.8024Z" fill="white"/>
<defs>
<filter id="filter0_d_7778_4354" x="9.00425" y="8.44663" width="16.1751" height="16.8367" filterUnits="userSpaceOnUse" color-interpolation-filters="sRGB">
<feFlood flood-opacity="0" result="BackgroundImageFix"/>
<feColorMatrix in="SourceAlpha" type="matrix" values="0 0 0 0 0 0 0 0 0 0 0 0 0 0 0 0 0 0 127 0" result="hardAlpha"/>
<feOffset/>
<feGaussianBlur stdDeviation="2.03694"/>
<feComposite in2="hardAlpha" operator="out"/>
<feColorMatrix type="matrix" values="0 0 0 0 1 0 0 0 0 1 0 0 0 0 1 0 0 0 0.32 0"/>
<feBlend mode="normal" in2="BackgroundImageFix" result="effect1_dropShadow_7778_4354"/>
<feBlend mode="normal" in="SourceGraphic" in2="effect1_dropShadow_7778_4354" result="shape"/>
</filter>
<linearGradient id="paint0_linear_7778_4354" x1="17.178" y1="24.6957" x2="42.5787" y2="46.9631" gradientUnits="userSpaceOnUse">
<stop stop-color="#B78628"/>
<stop offset="0.510417" stop-color="#EEB609"/>
<stop offset="1" stop-color="#FCC201"/>
</linearGradient>
<linearGradient id="paint1_linear_7778_4354" x1="5.45995" y1="25.9332" x2="29.9165" y2="50.4127" gradientUnits="userSpaceOnUse">
<stop stop-color="#B78628"/>
<stop offset="0.510417" stop-color="#EEB609"/>
<stop offset="1" stop-color="#FCC201"/>
</linearGradient>
<linearGradient id="paint2_linear_7778_4354" x1="14.1244" y1="8.44991" x2="30.2777" y2="19.2723" gradientUnits="userSpaceOnUse">
<stop stop-color="#B78628"/>
<stop offset="0.510417" stop-color="#EEB609"/>
<stop offset="1" stop-color="#FCC201"/>
</linearGradient>
</defs>
</svg>
