<svg width="35" height="48" viewBox="0 0 35 48" fill="none" xmlns="http://www.w3.org/2000/svg">
<path d="M14.9141 30.264L20.1416 47.8135L24.4356 41.6525L31.5301 44.2663L25.9292 27.2769L14.9141 30.264Z" fill="url(#paint0_radial_7778_4355)"/>
<g opacity="0.7">
<path d="M17.856 35.1594L17.3047 35.3276L20.7988 46.7811L21.3501 46.6129L17.856 35.1594Z" fill="#FFCE45"/>
</g>
<g opacity="0.7">
<path d="M25.831 29.9914L25.2812 30.1646L29.5752 43.7937L30.1249 43.6205L25.831 29.9914Z" fill="#FFCE45"/>
</g>
<path d="M8.56575 28.397L2.96484 44.6396L10.6194 42.0259L14.54 48.0002L21.0744 30.6373L8.56575 28.397Z" fill="url(#paint1_radial_7778_4355)"/>
<g opacity="0.7">
<path d="M9.97774 27.7444L4.75 43.8008L5.29804 43.9792L10.5258 27.9228L9.97774 27.7444Z" fill="#FFCE45"/>
</g>
<g opacity="0.7">
<path d="M19.3153 29.6058L13.3398 46.5957L13.8836 46.787L19.8591 29.7971L19.3153 29.6058Z" fill="#FFCE45"/>
</g>
<path d="M0.351562 17.0081C0.351562 16.2232 2.26487 15.5829 2.37251 14.8277C2.48284 14.0537 0.827794 12.9029 1.04321 12.1681C1.26236 11.4205 3.27853 11.3461 3.59811 10.6475C3.92123 9.94102 2.6598 8.36813 3.07687 7.72045C3.4965 7.06883 5.45147 7.56622 5.95725 6.98294C6.46401 6.39861 5.69499 4.53398 6.27939 4.02722C6.86261 3.52144 8.59929 4.54656 9.25084 4.12693C9.89852 3.70986 9.68403 1.70384 10.3905 1.38072C11.0891 1.06114 12.4653 2.53438 13.2129 2.31517C13.9477 2.09975 14.3098 0.114965 15.0838 0.00463749C15.839 -0.103004 16.7427 1.69893 17.5276 1.69893C18.3125 1.69893 19.2162 -0.103004 19.9714 0.00463749C20.7454 0.114965 21.1075 2.09975 21.8424 2.31517C22.59 2.53432 23.9662 1.06114 24.6648 1.38072C25.3712 1.70384 25.1567 3.70986 25.8044 4.12693C26.456 4.54656 28.1926 3.52144 28.7759 4.02722C29.3603 4.53398 28.5912 6.39861 29.0981 6.98294C29.6038 7.56616 31.5589 7.06883 31.9784 7.72045C32.3955 8.36813 31.1341 9.94102 31.4572 10.6475C31.7768 11.3461 33.793 11.4205 34.0121 12.1681C34.2275 12.9029 32.5725 14.0536 32.6827 14.8276C32.7904 15.5828 34.7037 16.223 34.7037 17.008C34.7037 17.793 32.7904 18.4332 32.6827 19.1885C32.5724 19.9625 34.2275 21.1132 34.012 21.848C33.7929 22.5956 31.7767 22.67 31.4571 23.3687C31.134 24.0751 32.3955 25.648 31.9784 26.2957C31.5588 26.9473 29.6038 26.4499 29.098 27.0332C28.5912 27.6175 29.3603 29.4822 28.7759 29.9889C28.1926 30.4947 26.456 29.4696 25.8043 29.8892C25.1567 30.3063 25.3712 32.3123 24.6647 32.6354C23.966 32.955 22.5899 31.4818 21.8423 31.701C21.1075 31.9164 20.7454 33.9012 19.9714 34.0115C19.2162 34.1191 18.3125 32.3172 17.5276 32.3172C16.7427 32.3172 15.839 34.1191 15.0838 34.0115C14.3098 33.9012 13.9476 31.9164 13.2128 31.701C12.4652 31.4818 11.0891 32.955 10.3904 32.6354C9.6839 32.3123 9.89839 30.3063 9.25071 29.8892C8.59909 29.4696 6.86248 30.4947 6.2792 29.9889C5.69487 29.4822 6.46388 27.6175 5.95705 27.0332C5.45127 26.45 3.49623 26.9473 3.07667 26.2957C2.6596 25.648 3.92104 24.0751 3.59792 23.3687C3.27833 22.67 1.26216 22.5956 1.04301 21.848C0.827598 21.1132 2.48265 19.9625 2.37232 19.1885C2.26487 18.4333 0.351562 17.793 0.351562 17.0081Z" fill="#FCAB28"/>
<path d="M17.5265 30.824C25.1566 30.824 31.342 24.6385 31.342 17.0084C31.342 9.3783 25.1566 3.19287 17.5265 3.19287C9.89637 3.19287 3.71094 9.3783 3.71094 17.0084C3.71094 24.6385 9.89637 30.824 17.5265 30.824Z" fill="#FFCE45"/>
<path d="M17.5292 31.1039C13.7642 31.1039 10.2245 29.6377 7.56211 26.9753C4.89983 24.313 3.43359 20.7733 3.43359 17.0082C3.43359 13.2431 4.89977 9.70346 7.56211 7.04111C10.2245 4.37883 13.7642 2.9126 17.5292 2.9126C21.2943 2.9126 24.834 4.37877 27.4963 7.04111C30.1586 9.70346 31.6248 13.2431 31.6248 17.0082C31.6248 20.7733 30.1587 24.313 27.4963 26.9753C24.834 29.6377 21.2943 31.1039 17.5292 31.1039ZM17.5292 3.47275C10.0657 3.47275 3.99369 9.54478 3.99369 17.0083C3.99369 24.4718 10.0657 30.5438 17.5292 30.5438C24.9927 30.5438 31.0648 24.4718 31.0648 17.0083C31.0648 9.54478 24.9927 3.47275 17.5292 3.47275Z" fill="#FCAB28"/>
<path d="M17.5277 26.9031C22.9925 26.9031 27.4227 22.473 27.4227 17.0082C27.4227 11.5434 22.9925 7.11328 17.5277 7.11328C12.0629 7.11328 7.63281 11.5434 7.63281 17.0082C7.63281 22.473 12.0629 26.9031 17.5277 26.9031Z" fill="#FFD733"/>
<path d="M25.7424 13.0878C25.7424 12.4577 25.6809 11.8422 25.5684 11.2448C23.7726 8.74396 20.8415 7.11328 17.5277 7.11328C12.0629 7.11328 7.63281 11.5434 7.63281 17.0082C7.63281 17.6383 7.69427 18.2538 7.80682 18.8512C9.6026 21.3521 12.5337 22.9827 15.8475 22.9827C21.3123 22.9827 25.7424 18.5527 25.7424 13.0878Z" fill="#FFE266"/>
<path d="M17.6948 27.1651C12.0798 27.1651 7.51172 22.5969 7.51172 16.9819C7.51172 11.367 12.0798 6.79883 17.6948 6.79883C23.3098 6.79883 27.878 11.367 27.878 16.9819C27.878 22.5969 23.3098 27.1651 17.6948 27.1651ZM17.6948 7.37523C12.3977 7.37523 8.08812 11.6848 8.08812 16.9819C8.08812 22.2791 12.3977 26.5887 17.6948 26.5887C22.992 26.5887 27.3015 22.2791 27.3015 16.9819C27.3015 11.6848 22.992 7.37523 17.6948 7.37523Z" fill="#FCAB28"/>
<g filter="url(#filter0_d_7778_4355)">
<path d="M17.7262 17.336H15.5062L15.4943 16.1783H17.3979C17.7242 16.1783 17.9967 16.1326 18.2155 16.041C18.4343 15.9495 18.5994 15.8163 18.7108 15.6412C18.8262 15.4662 18.8839 15.2533 18.8839 15.0027C18.8839 14.7242 18.8302 14.4974 18.7227 14.3224C18.6193 14.1473 18.4562 14.02 18.2334 13.9405C18.0106 13.8569 17.7281 13.8151 17.386 13.8151H16.0373V21.209H14.3962V12.5202H17.386C17.8793 12.5202 18.3189 12.5679 18.7048 12.6634C19.0947 12.7549 19.4249 12.8981 19.6955 13.0931C19.966 13.288 20.1709 13.5327 20.3101 13.8271C20.4533 14.1215 20.525 14.4716 20.525 14.8774C20.525 15.2354 20.4414 15.5656 20.2743 15.868C20.1112 16.1664 19.8586 16.4091 19.5164 16.596C19.1783 16.783 18.7486 16.8904 18.2274 16.9183L17.7262 17.336ZM17.6545 21.209H15.0228L15.7091 19.92H17.6545C17.9808 19.92 18.2493 19.8663 18.4602 19.7589C18.675 19.6514 18.8341 19.5042 18.9376 19.3173C19.045 19.1263 19.0987 18.9075 19.0987 18.6608C19.0987 18.3903 19.051 18.1556 18.9555 17.9566C18.864 17.7577 18.7168 17.6046 18.5139 17.4971C18.315 17.3897 18.0524 17.336 17.7262 17.336H16.0194L16.0314 16.1783H18.2036L18.5795 16.6259C19.0808 16.6299 19.4886 16.7293 19.8029 16.9243C20.1212 17.1192 20.3559 17.3698 20.5071 17.6762C20.6582 17.9825 20.7338 18.3127 20.7338 18.6668C20.7338 19.2238 20.6125 19.6912 20.3698 20.0692C20.1311 20.4471 19.781 20.7316 19.3195 20.9225C18.862 21.1135 18.307 21.209 17.6545 21.209Z" fill="url(#paint2_radial_7778_4355)"/>
</g>
<path d="M12.5248 26.3439L13.1463 24.6714L13.728 26.3671L14.817 27.0292L13.7062 27.649L13.0848 29.7759L12.5031 27.6258L11.4141 26.9637L12.5248 26.3439Z" fill="white"/>
<path d="M11.2692 7.30666L12.1409 5.10449L12.9569 7.33719L14.4846 8.20894L12.9264 9.02493L12.0546 11.8253L11.2387 8.9944L9.71094 8.12265L11.2692 7.30666Z" fill="white"/>
<path d="M25.7301 9.85891L26.6018 7.65674L27.4178 9.88944L28.9456 10.7612L27.3874 11.5772L26.5156 14.3775L25.6996 11.5466L24.1719 10.6749L25.7301 9.85891Z" fill="white"/>
<defs>
<filter id="filter0_d_7778_4355" x="10.3207" y="8.44614" width="14.4876" height="16.8367" filterUnits="userSpaceOnUse" color-interpolation-filters="sRGB">
<feFlood flood-opacity="0" result="BackgroundImageFix"/>
<feColorMatrix in="SourceAlpha" type="matrix" values="0 0 0 0 0 0 0 0 0 0 0 0 0 0 0 0 0 0 127 0" result="hardAlpha"/>
<feOffset/>
<feGaussianBlur stdDeviation="2.03694"/>
<feComposite in2="hardAlpha" operator="out"/>
<feColorMatrix type="matrix" values="0 0 0 0 1 0 0 0 0 1 0 0 0 0 1 0 0 0 0.32 0"/>
<feBlend mode="normal" in2="BackgroundImageFix" result="effect1_dropShadow_7778_4355"/>
<feBlend mode="normal" in="SourceGraphic" in2="effect1_dropShadow_7778_4355" result="shape"/>
</filter>
<radialGradient id="paint0_radial_7778_4355" cx="0" cy="0" r="1" gradientUnits="userSpaceOnUse" gradientTransform="translate(21.1429 36.2803) rotate(46.9336) scale(11.0741 19.0456)">
<stop stop-color="#63D5E4"/>
<stop offset="0.445" stop-color="#26B2C4"/>
<stop offset="1" stop-color="#22446C"/>
</radialGradient>
<radialGradient id="paint1_radial_7778_4355" cx="0" cy="0" r="1" gradientUnits="userSpaceOnUse" gradientTransform="translate(9.75355 36.9912) rotate(43.1379) scale(11.2944 19.4276)">
<stop stop-color="#63D5E4"/>
<stop offset="0.445" stop-color="#26B2C4"/>
<stop offset="1" stop-color="#22446C"/>
</radialGradient>
<radialGradient id="paint2_radial_7778_4355" cx="0" cy="0" r="1" gradientUnits="userSpaceOnUse" gradientTransform="translate(16.3624 16.3467) rotate(54.4602) scale(6.77791 11.0522)">
<stop stop-color="#63D5E4"/>
<stop offset="0.445" stop-color="#26B2C4"/>
<stop offset="1" stop-color="#22446C"/>
</radialGradient>
</defs>
</svg>
