<svg width="36" height="48" viewBox="0 0 36 48" fill="none" xmlns="http://www.w3.org/2000/svg">
<path d="M15.2656 30.264L20.4932 47.8135L24.7872 41.6525L31.8816 44.2663L26.2807 27.2769L15.2656 30.264Z" fill="#CD3414"/>
<g opacity="0.7">
<path d="M18.2037 35.1594L17.6523 35.3276L21.1465 46.7811L21.6978 46.6129L18.2037 35.1594Z" fill="#FFCE45"/>
</g>
<g opacity="0.7">
<path d="M26.1786 29.9914L25.6289 30.1646L29.9228 43.7937L30.4726 43.6205L26.1786 29.9914Z" fill="#FFCE45"/>
</g>
<path d="M8.91341 28.397L3.3125 44.6396L10.9671 42.0259L14.8877 48.0002L21.4221 30.6373L8.91341 28.397Z" fill="url(#paint0_linear_7778_4356)"/>
<g opacity="0.7">
<path d="M10.3254 27.7444L5.09766 43.8008L5.6457 43.9792L10.8734 27.9228L10.3254 27.7444Z" fill="#FFCE45"/>
</g>
<g opacity="0.7">
<path d="M19.6629 29.6058L13.6875 46.5957L14.2313 46.787L20.2067 29.7971L19.6629 29.6058Z" fill="#FFCE45"/>
</g>
<path d="M0.703125 17.0081C0.703125 16.2232 2.61643 15.5829 2.72408 14.8277C2.8344 14.0537 1.17936 12.9029 1.39477 12.1681C1.61392 11.4205 3.63009 11.3461 3.94967 10.6475C4.2728 9.94102 3.01136 8.36813 3.42843 7.72045C3.84806 7.06883 5.80304 7.56622 6.30881 6.98294C6.81558 6.39861 6.04656 4.53398 6.63095 4.02722C7.21417 3.52144 8.95085 4.54656 9.6024 4.12693C10.2501 3.70986 10.0356 1.70384 10.742 1.38072C11.4407 1.06114 12.8168 2.53438 13.5644 2.31517C14.2993 2.09975 14.6614 0.114965 15.4354 0.00463749C16.1906 -0.103004 17.0942 1.69893 17.8792 1.69893C18.6641 1.69893 19.5677 -0.103004 20.3229 0.00463749C21.0969 0.114965 21.4591 2.09975 22.1939 2.31517C22.9415 2.53432 24.3177 1.06114 25.0163 1.38072C25.7228 1.70384 25.5083 3.70986 26.156 4.12693C26.8076 4.54656 28.5442 3.52144 29.1275 4.02722C29.7118 4.53398 28.9428 6.39861 29.4496 6.98294C29.9554 7.56616 31.9104 7.06883 32.33 7.72045C32.7471 8.36813 31.4856 9.94102 31.8088 10.6475C32.1283 11.3461 34.1445 11.4205 34.3637 12.1681C34.5791 12.9029 32.924 14.0536 33.0343 14.8276C33.1419 15.5828 35.0553 16.223 35.0553 17.008C35.0553 17.793 33.1419 18.4332 33.0343 19.1885C32.924 19.9625 34.579 21.1132 34.3636 21.848C34.1445 22.5956 32.1283 22.67 31.8087 23.3687C31.4856 24.0751 32.747 25.648 32.3299 26.2957C31.9103 26.9473 29.9553 26.4499 29.4496 27.0332C28.9428 27.6175 29.7118 29.4822 29.1274 29.9889C28.5442 30.4947 26.8075 29.4696 26.1559 29.8892C25.5082 30.3063 25.7227 32.3123 25.0163 32.6354C24.3176 32.955 22.9415 31.4818 22.1939 31.701C21.459 31.9164 21.0969 33.9012 20.3229 34.0115C19.5677 34.1191 18.6641 32.3172 17.8792 32.3172C17.0942 32.3172 16.1906 34.1191 15.4354 34.0115C14.6614 33.9012 14.2992 31.9164 13.5644 31.701C12.8168 31.4818 11.4406 32.955 10.7419 32.6354C10.0355 32.3123 10.25 30.3063 9.60227 29.8892C8.95066 29.4696 7.21404 30.4947 6.63076 29.9889C6.04643 29.4822 6.81544 27.6175 6.30861 27.0332C5.80284 26.45 3.84779 26.9473 3.42823 26.2957C3.01116 25.648 4.2726 24.0751 3.94948 23.3687C3.62989 22.67 1.61372 22.5956 1.39458 21.848C1.17916 21.1132 2.83421 19.9625 2.72388 19.1885C2.61644 18.4333 0.703125 17.793 0.703125 17.0081Z" fill="#FCAB28"/>
<path d="M17.878 30.824C25.5082 30.824 31.6936 24.6385 31.6936 17.0084C31.6936 9.3783 25.5082 3.19287 17.878 3.19287C10.2479 3.19287 4.0625 9.3783 4.0625 17.0084C4.0625 24.6385 10.2479 30.824 17.878 30.824Z" fill="#FFCE45"/>
<path d="M17.8769 31.1039C14.1118 31.1039 10.5721 29.6377 7.90977 26.9753C5.24749 24.313 3.78125 20.7733 3.78125 17.0082C3.78125 13.2431 5.24742 9.70346 7.90977 7.04111C10.5721 4.37883 14.1118 2.9126 17.8769 2.9126C21.6419 2.9126 25.1816 4.37877 27.844 7.04111C30.5063 9.70346 31.9725 13.2431 31.9725 17.0082C31.9725 20.7733 30.5063 24.313 27.844 26.9753C25.1816 29.6377 21.642 31.1039 17.8769 31.1039ZM17.8769 3.47275C10.4134 3.47275 4.34134 9.54478 4.34134 17.0083C4.34134 24.4718 10.4134 30.5438 17.8769 30.5438C25.3404 30.5438 31.4124 24.4718 31.4124 17.0083C31.4124 9.54478 25.3404 3.47275 17.8769 3.47275Z" fill="#FCAB28"/>
<path d="M17.8793 26.9031C23.3441 26.9031 27.7742 22.473 27.7742 17.0082C27.7742 11.5434 23.3441 7.11328 17.8793 7.11328C12.4145 7.11328 7.98438 11.5434 7.98438 17.0082C7.98438 22.473 12.4145 26.9031 17.8793 26.9031Z" fill="#FFD733"/>
<path d="M26.0939 13.0878C26.0939 12.4577 26.0325 11.8422 25.9199 11.2448C24.1241 8.74396 21.1931 7.11328 17.8793 7.11328C12.4145 7.11328 7.98438 11.5434 7.98438 17.0082C7.98438 17.6383 8.04583 18.2538 8.15838 18.8512C9.95416 21.3521 12.8853 22.9827 16.1991 22.9827C21.6638 22.9827 26.0939 18.5527 26.0939 13.0878Z" fill="#FFE266"/>
<path d="M18.0386 27.1651C12.4236 27.1651 7.85547 22.5969 7.85547 16.9819C7.85547 11.367 12.4236 6.79883 18.0386 6.79883C23.6536 6.79883 28.2217 11.367 28.2217 16.9819C28.2217 22.5969 23.6536 27.1651 18.0386 27.1651ZM18.0386 7.37523C12.7414 7.37523 8.43187 11.6848 8.43187 16.9819C8.43187 22.2791 12.7414 26.5887 18.0386 26.5887C23.3358 26.5887 27.6453 22.2791 27.6453 16.9819C27.6453 11.6848 23.3358 7.37523 18.0386 7.37523Z" fill="#FCAB28"/>
<g filter="url(#filter0_d_7778_4356)">
<path d="M19.705 18.3505H21.3461C21.3024 18.9314 21.1412 19.4466 20.8627 19.8961C20.5843 20.3417 20.1964 20.6918 19.6991 20.9464C19.2018 21.201 18.599 21.3283 17.8909 21.3283C17.3458 21.3283 16.8545 21.2329 16.4169 21.0419C15.9832 20.847 15.6113 20.5705 15.3009 20.2124C14.9946 19.8504 14.7599 19.4167 14.5968 18.9115C14.4337 18.4022 14.3521 17.8313 14.3521 17.1988V16.5364C14.3521 15.9038 14.4356 15.3329 14.6027 14.8237C14.7698 14.3144 15.0085 13.8808 15.3188 13.5227C15.6331 13.1607 16.0091 12.8822 16.4467 12.6873C16.8883 12.4923 17.3816 12.3948 17.9267 12.3948C18.6348 12.3948 19.2336 12.5261 19.7229 12.7887C20.2123 13.0473 20.5922 13.4034 20.8627 13.8569C21.1333 14.3104 21.2964 14.8316 21.3521 15.4204H19.711C19.6792 15.0544 19.5996 14.7441 19.4723 14.4895C19.349 14.2349 19.162 14.0419 18.9113 13.9106C18.6647 13.7754 18.3365 13.7077 17.9267 13.7077C17.6084 13.7077 17.3279 13.7674 17.0853 13.8867C16.8466 14.0061 16.6476 14.1851 16.4885 14.4238C16.3294 14.6586 16.21 14.953 16.1304 15.307C16.0509 15.6571 16.0111 16.0629 16.0111 16.5244V17.1988C16.0111 17.6404 16.0469 18.0362 16.1185 18.3863C16.1901 18.7364 16.3015 19.0328 16.4527 19.2755C16.6039 19.5182 16.7988 19.7032 17.0375 19.8305C17.2762 19.9578 17.5607 20.0214 17.8909 20.0214C18.2927 20.0214 18.6189 19.9578 18.8696 19.8305C19.1242 19.7032 19.3171 19.5162 19.4484 19.2695C19.5837 19.0229 19.6692 18.7165 19.705 18.3505Z" fill="url(#paint1_linear_7778_4356)" shape-rendering="crispEdges"/>
</g>
<path d="M10.5994 9.60806L11.3762 7.65674L12.1033 9.63511L13.4647 10.4076L12.0762 11.1306L11.2993 13.6119L10.5723 11.1036L9.21094 10.3311L10.5994 9.60806Z" fill="white"/>
<defs>
<filter id="filter0_d_7778_4356" x="10.2777" y="8.32114" width="15.1478" height="17.0809" filterUnits="userSpaceOnUse" color-interpolation-filters="sRGB">
<feFlood flood-opacity="0" result="BackgroundImageFix"/>
<feColorMatrix in="SourceAlpha" type="matrix" values="0 0 0 0 0 0 0 0 0 0 0 0 0 0 0 0 0 0 127 0" result="hardAlpha"/>
<feOffset/>
<feGaussianBlur stdDeviation="2.03694"/>
<feComposite in2="hardAlpha" operator="out"/>
<feColorMatrix type="matrix" values="0 0 0 0 1 0 0 0 0 1 0 0 0 0 1 0 0 0 0.32 0"/>
<feBlend mode="normal" in2="BackgroundImageFix" result="effect1_dropShadow_7778_4356"/>
<feBlend mode="normal" in="SourceGraphic" in2="effect1_dropShadow_7778_4356" result="shape"/>
</filter>
<linearGradient id="paint0_linear_7778_4356" x1="12.3673" y1="28.397" x2="12.3673" y2="48.0002" gradientUnits="userSpaceOnUse">
<stop stop-color="#FE5629"/>
<stop offset="1" stop-color="#983319"/>
</linearGradient>
<linearGradient id="paint1_linear_7778_4356" x1="17.7894" y1="10.209" x2="17.7894" y2="24.209" gradientUnits="userSpaceOnUse">
<stop stop-color="#DC222A"/>
<stop offset="1" stop-color="#DC222A" stop-opacity="0.6"/>
</linearGradient>
</defs>
</svg>
