<svg width="35" height="48" viewBox="0 0 35 48" fill="none" xmlns="http://www.w3.org/2000/svg">
<path d="M14.6172 30.264L19.8447 47.8135L24.1387 41.6525L31.2332 44.2663L25.6323 27.2769L14.6172 30.264Z" fill="#7B7B7B"/>
<g opacity="0.7">
<path d="M17.5552 35.1594L17.0039 35.3276L20.498 46.7811L21.0494 46.6129L17.5552 35.1594Z" fill="#FFCE45"/>
</g>
<g opacity="0.7">
<path d="M25.5341 29.9918L24.9844 30.165L29.2783 43.7942L29.828 43.621L25.5341 29.9918Z" fill="#FFCE45"/>
</g>
<path d="M8.26497 28.397L2.66406 44.6396L10.3186 42.0259L14.2392 48.0002L20.7736 30.6373L8.26497 28.397Z" fill="#7B7B7B"/>
<g opacity="0.7">
<path d="M9.67696 27.7444L4.44922 43.8008L4.99726 43.9792L10.225 27.9228L9.67696 27.7444Z" fill="#FFCE45"/>
</g>
<g opacity="0.7">
<path d="M19.0145 29.6058L13.0391 46.5957L13.5828 46.787L19.5583 29.7971L19.0145 29.6058Z" fill="#FFCE45"/>
</g>
<path d="M0.0546875 17.0086C0.0546875 16.2236 1.968 15.5834 2.07564 14.8282C2.18597 14.0542 0.530919 12.9034 0.746334 12.1686C0.965482 11.421 2.98165 11.3466 3.30124 10.648C3.62436 9.94151 2.36293 8.36862 2.78 7.72094C3.19962 7.06932 5.1546 7.56671 5.66038 6.98343C6.16714 6.3991 5.39812 4.53446 5.98252 4.0277C6.56573 3.52192 8.30241 4.54704 8.95396 4.12742C9.60165 3.71035 9.38715 1.70433 10.0936 1.38121C10.7923 1.06163 12.1684 2.53487 12.916 2.31566C13.6508 2.10024 14.0129 0.115454 14.7869 0.00512577C15.5421 -0.102516 16.4458 1.69942 17.2307 1.69942C18.0157 1.69942 18.9193 -0.102516 19.6745 0.00512577C20.4485 0.115454 20.8107 2.10024 21.5455 2.31566C22.2931 2.5348 23.6693 1.06163 24.3679 1.38121C25.0744 1.70433 24.8598 3.71035 25.5075 4.12742C26.1591 4.54704 27.8958 3.52192 28.479 4.0277C29.0634 4.53446 28.2944 6.3991 28.8012 6.98343C29.307 7.56665 31.262 7.06932 31.6816 7.72094C32.0986 8.36862 30.8372 9.94151 31.1603 10.648C31.4799 11.3466 33.4961 11.421 33.7152 12.1686C33.9306 12.9034 32.2756 14.0541 32.3859 14.8281C32.4935 15.5833 34.4068 16.2235 34.4068 17.0085C34.4068 17.7935 32.4935 18.4337 32.3859 19.1889C32.2755 19.9629 33.9306 21.1137 33.7152 21.8485C33.496 22.5961 31.4798 22.6705 31.1603 23.3691C30.8371 24.0756 32.0986 25.6485 31.6815 26.2962C31.2619 26.9478 29.3069 26.4504 28.8011 27.0337C28.2944 27.618 29.0634 29.4826 28.479 29.9894C27.8958 30.4952 26.1591 29.4701 25.5075 29.8897C24.8598 30.3068 25.0743 32.3128 24.3678 32.6359C23.6692 32.9555 22.293 31.4822 21.5454 31.7015C20.8106 31.9169 20.4485 33.9017 19.6745 34.012C18.9193 34.1196 18.0157 32.3177 17.2307 32.3177C16.4458 32.3177 15.5421 34.1196 14.7869 34.012C14.0129 33.9017 13.6508 31.9169 12.9159 31.7015C12.1683 31.4823 10.7922 32.9555 10.0935 32.6359C9.38702 32.3128 9.60152 30.3068 8.95384 29.8897C8.30222 29.4701 6.56561 30.4952 5.98232 29.9894C5.39799 29.4826 6.167 27.618 5.66018 27.0337C5.1544 26.4505 3.19936 26.9478 2.7798 26.2962C2.36273 25.6485 3.62416 24.0756 3.30104 23.3691C2.98146 22.6705 0.965286 22.5961 0.746138 21.8485C0.530723 21.1137 2.18577 19.963 2.07544 19.189C1.968 18.4337 0.0546875 17.7935 0.0546875 17.0086Z" fill="#FCAB28"/>
<path d="M17.2296 30.824C24.8597 30.824 31.0452 24.6385 31.0452 17.0084C31.0452 9.3783 24.8597 3.19287 17.2296 3.19287C9.59949 3.19287 3.41406 9.3783 3.41406 17.0084C3.41406 24.6385 9.59949 30.824 17.2296 30.824Z" fill="#FFCE45"/>
<path d="M17.2284 31.1043C13.4634 31.1043 9.92368 29.6382 7.26133 26.9758C4.59905 24.3135 3.13281 20.7738 3.13281 17.0087C3.13281 13.2436 4.59898 9.70395 7.26133 7.0416C9.92368 4.37932 13.4634 2.91309 17.2284 2.91309C20.9935 2.91309 24.5332 4.37925 27.1956 7.0416C29.8578 9.70395 31.3241 13.2436 31.3241 17.0087C31.3241 20.7738 29.8579 24.3135 27.1956 26.9758C24.5332 29.6382 20.9935 31.1043 17.2284 31.1043ZM17.2284 3.47324C9.76493 3.47324 3.6929 9.54527 3.6929 17.0088C3.6929 24.4723 9.76493 30.5443 17.2284 30.5443C24.6919 30.5443 30.764 24.4723 30.764 17.0088C30.764 9.54527 24.6919 3.47324 17.2284 3.47324Z" fill="#FCAB28"/>
<path d="M17.2309 26.9036C22.6957 26.9036 27.1258 22.4735 27.1258 17.0087C27.1258 11.5439 22.6957 7.11377 17.2309 7.11377C11.766 7.11377 7.33594 11.5439 7.33594 17.0087C7.33594 22.4735 11.766 26.9036 17.2309 26.9036Z" fill="#FFD733"/>
<path d="M25.4455 13.0878C25.4455 12.4577 25.384 11.8422 25.2715 11.2448C23.4757 8.74396 20.5446 7.11328 17.2309 7.11328C11.766 7.11328 7.33594 11.5434 7.33594 17.0082C7.33594 17.6383 7.39739 18.2538 7.50995 18.8512C9.30572 21.3521 12.2368 22.9827 15.5506 22.9827C21.0154 22.9827 25.4455 18.5527 25.4455 13.0878Z" fill="#FFE266"/>
<path d="M17.3901 27.1655C11.7751 27.1655 7.20703 22.5974 7.20703 16.9824C7.20703 11.3674 11.7751 6.79932 17.3901 6.79932C23.0051 6.79932 27.5733 11.3674 27.5733 16.9824C27.5733 22.5974 23.0051 27.1655 17.3901 27.1655ZM17.3901 7.37572C12.093 7.37572 7.78343 11.6853 7.78343 16.9824C7.78343 22.2796 12.093 26.5891 17.3901 26.5891C22.6873 26.5891 26.9969 22.2796 26.9969 16.9824C26.9969 11.6853 22.6873 7.37572 17.3901 7.37572Z" fill="#FCAB28"/>
<g filter="url(#filter0_d_7778_4357)">
<path d="M16.5899 21.2095H14.7161L14.728 19.9205H16.5899C17.0952 19.9205 17.5189 19.8091 17.861 19.5863C18.2032 19.3595 18.4617 19.0353 18.6368 18.6136C18.8118 18.1879 18.8994 17.6786 18.8994 17.0859V16.6383C18.8994 16.1808 18.8496 15.777 18.7502 15.4269C18.6507 15.0768 18.5035 14.7824 18.3086 14.5437C18.1176 14.305 17.8809 14.124 17.5984 14.0006C17.316 13.8773 16.9917 13.8156 16.6257 13.8156H14.6803V12.5207H16.6257C17.2066 12.5207 17.7357 12.6181 18.2131 12.8131C18.6945 13.008 19.1102 13.2885 19.4603 13.6545C19.8144 14.0165 20.0849 14.4502 20.2719 14.9554C20.4629 15.4607 20.5584 16.0256 20.5584 16.6502V17.0859C20.5584 17.7065 20.4629 18.2714 20.2719 18.7807C20.0849 19.2859 19.8144 19.7196 19.4603 20.0816C19.1102 20.4436 18.6925 20.7221 18.2071 20.9171C17.7218 21.112 17.1827 21.2095 16.5899 21.2095ZM15.6351 12.5207V21.2095H13.994V12.5207H15.6351Z" fill="#7B7B7B"/>
</g>
<path d="M23.7301 7.30666L24.6018 5.10449L25.4178 7.33719L26.9456 8.20894L25.3874 9.02493L24.5156 11.8253L23.6996 8.9944L22.1719 8.12265L23.7301 7.30666Z" fill="white"/>
<path d="M11.2321 25.1872L11.7728 23.8213L12.2789 25.2061L13.2265 25.7468L12.26 26.2529L11.7193 27.9898L11.2132 26.234L10.2656 25.6933L11.2321 25.1872Z" fill="white"/>
<defs>
<filter id="filter0_d_7778_4357" x="9.91831" y="8.44663" width="14.7142" height="16.8367" filterUnits="userSpaceOnUse" color-interpolation-filters="sRGB">
<feFlood flood-opacity="0" result="BackgroundImageFix"/>
<feColorMatrix in="SourceAlpha" type="matrix" values="0 0 0 0 0 0 0 0 0 0 0 0 0 0 0 0 0 0 127 0" result="hardAlpha"/>
<feOffset/>
<feGaussianBlur stdDeviation="2.03694"/>
<feComposite in2="hardAlpha" operator="out"/>
<feColorMatrix type="matrix" values="0 0 0 0 1 0 0 0 0 1 0 0 0 0 1 0 0 0 0.32 0"/>
<feBlend mode="normal" in2="BackgroundImageFix" result="effect1_dropShadow_7778_4357"/>
<feBlend mode="normal" in="SourceGraphic" in2="effect1_dropShadow_7778_4357" result="shape"/>
</filter>
</defs>
</svg>
