<svg width="35" height="48" viewBox="0 0 35 48" fill="none" xmlns="http://www.w3.org/2000/svg">
<path d="M14.9727 30.264L20.2002 47.8135L24.4942 41.6525L31.5887 44.2663L25.9878 27.2769L14.9727 30.264Z" fill="#C4C4C4"/>
<g opacity="0.7">
<path d="M17.9146 35.1594L17.3633 35.3276L20.8574 46.7811L21.4087 46.6129L17.9146 35.1594Z" fill="#7B7B7B"/>
</g>
<g opacity="0.7">
<path d="M25.8896 29.9914L25.3398 30.1646L29.6338 43.7937L30.1835 43.6205L25.8896 29.9914Z" fill="#7B7B7B"/>
</g>
<path d="M8.62434 28.397L3.02344 44.6396L10.678 42.0259L14.5986 48.0002L21.133 30.6373L8.62434 28.397Z" fill="#C4C4C4"/>
<g opacity="0.7">
<path d="M10.0363 27.7444L4.80859 43.8008L5.35663 43.9792L10.5844 27.9228L10.0363 27.7444Z" fill="#7B7B7B"/>
</g>
<g opacity="0.7">
<path d="M19.3739 29.6058L13.3984 46.5957L13.9422 46.787L19.9177 29.7971L19.3739 29.6058Z" fill="#7B7B7B"/>
</g>
<path d="M0.410156 17.0081C0.410156 16.2232 2.32347 15.5829 2.43111 14.8277C2.54144 14.0537 0.886388 12.9029 1.1018 12.1681C1.32095 11.4205 3.33712 11.3461 3.65671 10.6475C3.97983 9.94102 2.71839 8.36813 3.13547 7.72045C3.55509 7.06883 5.51007 7.56622 6.01585 6.98294C6.52261 6.39861 5.75359 4.53398 6.33798 4.02722C6.9212 3.52144 8.65788 4.54656 9.30943 4.12693C9.95712 3.70986 9.74262 1.70384 10.4491 1.38072C11.1477 1.06114 12.5239 2.53438 13.2715 2.31517C14.0063 2.09975 14.3684 0.114965 15.1424 0.00463749C15.8976 -0.103004 16.8012 1.69893 17.5862 1.69893C18.3711 1.69893 19.2748 -0.103004 20.03 0.00463749C20.804 0.114965 21.1661 2.09975 21.901 2.31517C22.6486 2.53432 24.0248 1.06114 24.7234 1.38072C25.4298 1.70384 25.2153 3.70986 25.863 4.12693C26.5146 4.54656 28.2512 3.52144 28.8345 4.02722C29.4188 4.53398 28.6498 6.39861 29.1567 6.98294C29.6624 7.56616 31.6175 7.06883 32.037 7.72045C32.4541 8.36813 31.1927 9.94102 31.5158 10.6475C31.8354 11.3461 33.8516 11.4205 34.0707 12.1681C34.2861 12.9029 32.6311 14.0536 32.7413 14.8276C32.849 15.5828 34.7623 16.223 34.7623 17.008C34.7623 17.793 32.849 18.4332 32.7413 19.1885C32.631 19.9625 34.2861 21.1132 34.0706 21.848C33.8515 22.5956 31.8353 22.67 31.5157 23.3687C31.1926 24.0751 32.454 25.648 32.037 26.2957C31.6173 26.9473 29.6624 26.4499 29.1566 27.0332C28.6498 27.6175 29.4189 29.4822 28.8345 29.9889C28.2512 30.4947 26.5146 29.4696 25.8629 29.8892C25.2153 30.3063 25.4297 32.3123 24.7233 32.6354C24.0246 32.955 22.6485 31.4818 21.9009 31.701C21.1661 31.9164 20.804 33.9012 20.03 34.0115C19.2748 34.1191 18.3711 32.3172 17.5862 32.3172C16.8012 32.3172 15.8976 34.1191 15.1424 34.0115C14.3684 33.9012 14.0062 31.9164 13.2714 31.701C12.5238 31.4818 11.1477 32.955 10.4489 32.6354C9.74249 32.3123 9.95699 30.3063 9.3093 29.8892C8.65769 29.4696 6.92108 30.4947 6.33779 29.9889C5.75346 29.4822 6.52247 27.6175 6.01565 27.0332C5.50987 26.45 3.55483 26.9473 3.13527 26.2957C2.71819 25.648 3.97963 24.0751 3.65651 23.3687C3.33693 22.67 1.32076 22.5956 1.10161 21.848C0.886192 21.1132 2.54124 19.9625 2.43091 19.1885C2.32347 18.4333 0.410156 17.793 0.410156 17.0081Z" fill="#FCAB28"/>
<path d="M17.5851 30.824C25.2152 30.824 31.4006 24.6385 31.4006 17.0084C31.4006 9.3783 25.2152 3.19287 17.5851 3.19287C9.95496 3.19287 3.76953 9.3783 3.76953 17.0084C3.76953 24.6385 9.95496 30.824 17.5851 30.824Z" fill="#FFCE45"/>
<path d="M17.5878 31.1039C13.8228 31.1039 10.2831 29.6377 7.62071 26.9753C4.95842 24.313 3.49219 20.7733 3.49219 17.0082C3.49219 13.2431 4.95836 9.70346 7.62071 7.04111C10.2831 4.37883 13.8228 2.9126 17.5878 2.9126C21.3528 2.9126 24.8926 4.37877 27.5549 7.04111C30.2172 9.70346 31.6834 13.2431 31.6834 17.0082C31.6834 20.7733 30.2173 24.313 27.5549 26.9753C24.8926 29.6377 21.3529 31.1039 17.5878 31.1039ZM17.5878 3.47275C10.1243 3.47275 4.05228 9.54478 4.05228 17.0083C4.05228 24.4718 10.1243 30.5438 17.5878 30.5438C25.0513 30.5438 31.1234 24.4718 31.1234 17.0083C31.1234 9.54478 25.0513 3.47275 17.5878 3.47275Z" fill="#FCAB28"/>
<path d="M17.5863 26.9031C23.0511 26.9031 27.4812 22.473 27.4812 17.0082C27.4812 11.5434 23.0511 7.11328 17.5863 7.11328C12.1215 7.11328 7.69141 11.5434 7.69141 17.0082C7.69141 22.473 12.1215 26.9031 17.5863 26.9031Z" fill="#FFD733"/>
<path d="M25.801 13.0878C25.801 12.4577 25.7395 11.8422 25.627 11.2448C23.8312 8.74396 20.9001 7.11328 17.5863 7.11328C12.1215 7.11328 7.69141 11.5434 7.69141 17.0082C7.69141 17.6383 7.75286 18.2538 7.86542 18.8512C9.66119 21.3521 12.5923 22.9827 15.9061 22.9827C21.3709 22.9827 25.801 18.5527 25.801 13.0878Z" fill="#FFE266"/>
<path d="M17.7534 27.1651C12.1384 27.1651 7.57031 22.5969 7.57031 16.9819C7.57031 11.367 12.1384 6.79883 17.7534 6.79883C23.3684 6.79883 27.9365 11.367 27.9365 16.9819C27.9365 22.5969 23.3684 27.1651 17.7534 27.1651ZM17.7534 7.37523C12.4562 7.37523 8.14671 11.6848 8.14671 16.9819C8.14671 22.2791 12.4562 26.5887 17.7534 26.5887C23.0506 26.5887 27.3601 22.2791 27.3601 16.9819C27.3601 11.6848 23.0506 7.37523 17.7534 7.37523Z" fill="#FCAB28"/>
<g filter="url(#filter0_d_7778_4358)">
<path d="M20.6432 19.92V21.209H16.0243V19.92H20.6432ZM16.5256 12.5202V21.209H14.8845V12.5202H16.5256ZM20.0405 16.1067V17.3659H16.0243V16.1067H20.0405ZM20.6253 12.5202V13.8151H16.0243V12.5202H20.6253Z" fill="#9F9F9F"/>
</g>
<defs>
<filter id="filter0_d_7778_4358" x="10.8089" y="8.44614" width="13.9095" height="16.8367" filterUnits="userSpaceOnUse" color-interpolation-filters="sRGB">
<feFlood flood-opacity="0" result="BackgroundImageFix"/>
<feColorMatrix in="SourceAlpha" type="matrix" values="0 0 0 0 0 0 0 0 0 0 0 0 0 0 0 0 0 0 127 0" result="hardAlpha"/>
<feOffset/>
<feGaussianBlur stdDeviation="2.03694"/>
<feComposite in2="hardAlpha" operator="out"/>
<feColorMatrix type="matrix" values="0 0 0 0 1 0 0 0 0 1 0 0 0 0 1 0 0 0 0.32 0"/>
<feBlend mode="normal" in2="BackgroundImageFix" result="effect1_dropShadow_7778_4358"/>
<feBlend mode="normal" in="SourceGraphic" in2="effect1_dropShadow_7778_4358" result="shape"/>
</filter>
</defs>
</svg>
